<svg width="110" height="32" viewBox="0 0 110 32" fill="none" xmlns="http://www.w3.org/2000/svg">
<path d="M105.926 0.641001C107.812 0.641001 109.347 2.148 109.347 4V28C109.347 29.852 107.812 31.359 105.926 31.359H4.07407C2.18778 31.359 0.65287 29.852 0.65287 28V4C0.65287 2.148 2.18778 0.641001 4.07407 0.641001H105.926ZM105.926 1.90735e-06H4.07407C1.83435 1.90735e-06 0 1.801 0 4V28C0 30.199 1.83435 32 4.07407 32H105.926C108.166 32 110 30.199 110 28V4C110 1.801 108.166 1.90735e-06 105.926 1.90735e-06Z" fill="#4DCCB5"/>
<path d="M24.5486 15.8272C24.5249 13.2488 26.6989 11.9944 26.7983 11.936C25.5671 10.1736 23.6588 9.93277 22.9882 9.91357C21.3854 9.74797 19.8308 10.8552 19.0143 10.8552C18.1816 10.8552 16.9243 9.92957 15.5693 9.95677C13.8256 9.98317 12.1943 10.9744 11.2997 12.5136C9.4533 15.652 10.8303 20.264 12.5993 22.8008C13.4842 24.0432 14.5182 25.4304 15.8716 25.3816C17.1957 25.328 17.6903 24.5528 19.2881 24.5528C20.8713 24.5528 21.3357 25.3816 22.716 25.3504C24.1371 25.328 25.0317 24.1024 25.8857 22.8488C26.9083 21.4248 27.3189 20.0224 27.3352 19.9504C27.3018 19.9392 24.5754 18.9176 24.5486 15.8272Z" fill="#4DCCB5"/>
<path d="M21.9412 8.24477C22.6533 7.37037 23.1406 6.18077 23.0053 4.97357C21.9746 5.01837 20.6855 5.67357 19.9432 6.52877C19.2865 7.28237 18.6998 8.51757 18.8514 9.67917C20.0092 9.76397 21.198 9.10557 21.9412 8.24477Z" fill="#4DCCB5"/>
<path d="M39.9667 8.00721C39.9667 8.94881 39.6791 9.65761 39.1046 10.1336C38.5726 10.5728 37.8164 10.7928 36.837 10.7928C36.3514 10.7928 35.9358 10.772 35.5879 10.7304V5.58561C36.0417 5.51361 36.5306 5.47681 37.0586 5.47681C37.9916 5.47681 38.6948 5.67601 39.169 6.07441C39.7003 6.52481 39.9667 7.16881 39.9667 8.00721ZM39.0663 8.03041C39.0663 7.42001 38.9017 6.95201 38.5726 6.62561C38.2434 6.30001 37.7626 6.13681 37.1295 6.13681C36.8606 6.13681 36.6317 6.15441 36.4418 6.19121V10.1024C36.5469 10.1184 36.7392 10.1256 37.0187 10.1256C37.6722 10.1256 38.1766 9.94721 38.5318 9.59041C38.8871 9.23361 39.0663 8.71361 39.0663 8.03041Z" fill="#4DCCB5"/>
<path d="M44.7405 8.82964C44.7405 9.40964 44.5719 9.88484 44.2345 10.2576C43.8809 10.6408 43.4124 10.832 42.8273 10.832C42.2635 10.832 41.8145 10.6488 41.4796 10.2808C41.1456 9.91364 40.9785 9.45044 40.9785 8.89204C40.9785 8.30804 41.1504 7.82884 41.4959 7.45684C41.8414 7.08484 42.3059 6.89844 42.8909 6.89844C43.4547 6.89844 43.9078 7.08164 44.2508 7.44884C44.5767 7.80564 44.7405 8.26644 44.7405 8.82964ZM43.8548 8.85684C43.8548 8.50884 43.7782 8.21044 43.6259 7.96164C43.4466 7.66084 43.1916 7.51044 42.8599 7.51044C42.5169 7.51044 42.2561 7.66084 42.0769 7.96164C41.9237 8.21044 41.8479 8.51364 41.8479 8.87204C41.8479 9.22004 41.9245 9.51844 42.0769 9.76724C42.2619 10.068 42.5193 10.2184 42.8518 10.2184C43.1777 10.2184 43.4336 10.0656 43.6177 9.75924C43.7758 9.50564 43.8548 9.20484 43.8548 8.85684Z" fill="#4DCCB5"/>
<path d="M51.1418 6.97522L49.94 10.7464H49.1578L48.6599 9.10882C48.5336 8.70002 48.431 8.29362 48.3511 7.89042H48.3356C48.2615 8.30482 48.1588 8.71042 48.0268 9.10882L47.498 10.7464H46.7068L45.5767 6.97522H46.4542L46.8885 8.76802C46.9936 9.19202 47.08 9.59602 47.1493 9.97842H47.1647C47.2283 9.66322 47.3334 9.26162 47.4817 8.77602L48.0268 6.97602H48.7227L49.245 8.73762C49.3713 9.16722 49.4739 9.58082 49.553 9.97922H49.5766C49.6344 9.59122 49.7216 9.17762 49.8373 8.73762L50.3034 6.97602H51.1418V6.97522Z" fill="#4DCCB5"/>
<path d="M55.569 10.7464H54.715V8.5864C54.715 7.9208 54.4575 7.588 53.941 7.588C53.6875 7.588 53.483 7.6792 53.3241 7.8624C53.1669 8.0456 53.087 8.2616 53.087 8.5088V10.7456H52.2331V8.0528C52.2331 7.7216 52.2225 7.3624 52.2021 6.9736H52.9526L52.9925 7.5632H53.0161C53.1156 7.38 53.2639 7.2288 53.4586 7.108C53.69 6.9672 53.9491 6.896 54.2327 6.896C54.5912 6.896 54.8894 7.0096 55.1265 7.2376C55.4215 7.5168 55.569 7.9336 55.569 8.4872V10.7464Z" fill="#4DCCB5"/>
<path d="M57.9234 10.7464H57.0703V5.24481H57.9234V10.7464Z" fill="#4DCCB5"/>
<path d="M62.951 8.82964C62.951 9.40964 62.7823 9.88484 62.445 10.2576C62.0913 10.6408 61.622 10.832 61.0378 10.832C60.4731 10.832 60.0241 10.6488 59.6901 10.2808C59.356 9.91364 59.189 9.45044 59.189 8.89204C59.189 8.30804 59.3609 7.82884 59.7064 7.45684C60.0519 7.08484 60.5163 6.89844 61.1005 6.89844C61.6652 6.89844 62.1174 7.08164 62.4613 7.44884C62.7872 7.80564 62.951 8.26644 62.951 8.82964ZM62.0644 8.85684C62.0644 8.50884 61.9879 8.21044 61.8355 7.96164C61.657 7.66084 61.4012 7.51044 61.0704 7.51044C60.7265 7.51044 60.4658 7.66084 60.2873 7.96164C60.1342 8.21044 60.0584 8.51364 60.0584 8.87204C60.0584 9.22004 60.135 9.51844 60.2873 9.76724C60.4723 10.068 60.7298 10.2184 61.0622 10.2184C61.3882 10.2184 61.6432 10.0656 61.8273 9.75924C61.9862 9.50564 62.0644 9.20484 62.0644 8.85684Z" fill="#4DCCB5"/>
<path d="M67.0835 10.7464H66.3168L66.2532 10.312H66.2296C65.9672 10.6584 65.5932 10.832 65.1076 10.832C64.745 10.832 64.4517 10.7176 64.2308 10.4904C64.0304 10.284 63.9302 10.0272 63.9302 9.72244C63.9302 9.26164 64.1257 8.91044 64.5193 8.66724C64.912 8.42404 65.4645 8.30484 66.1758 8.31044V8.24004C66.1758 7.74324 65.9102 7.49524 65.3781 7.49524C64.9992 7.49524 64.6651 7.58884 64.3767 7.77444L64.2031 7.22404C64.56 7.00724 65.0008 6.89844 65.5207 6.89844C66.5245 6.89844 67.0281 7.41844 67.0281 8.45844V9.84724C67.0281 10.224 67.0468 10.524 67.0835 10.7464ZM66.197 9.45044V8.86884C65.2551 8.85284 64.7841 9.10644 64.7841 9.62884C64.7841 9.82564 64.8379 9.97284 64.9479 10.0712C65.0579 10.1696 65.198 10.2184 65.3651 10.2184C65.5525 10.2184 65.7277 10.16 65.8874 10.044C66.0479 9.92724 66.1465 9.77924 66.1831 9.59764C66.1921 9.55684 66.197 9.50724 66.197 9.45044Z" fill="#4DCCB5"/>
<path d="M71.9362 10.7464H71.1784L71.1385 10.1408H71.1149C70.8729 10.6016 70.4606 10.832 69.8812 10.832C69.4184 10.832 69.033 10.6536 68.7275 10.2968C68.4219 9.94001 68.2695 9.47681 68.2695 8.90801C68.2695 8.29761 68.4349 7.80321 68.7674 7.42561C69.0892 7.07361 69.4836 6.89761 69.9529 6.89761C70.4687 6.89761 70.8297 7.06801 71.035 7.40961H71.0513V5.24481H71.906V9.73041C71.906 10.0976 71.9158 10.436 71.9362 10.7464ZM71.0513 9.15601V8.52721C71.0513 8.41841 71.0432 8.33041 71.0277 8.26321C70.9796 8.06161 70.8761 7.89201 70.7189 7.75521C70.56 7.61841 70.3685 7.54961 70.1477 7.54961C69.8291 7.54961 69.5797 7.67361 69.3964 7.92241C69.2147 8.17121 69.1226 8.48881 69.1226 8.87681C69.1226 9.24961 69.2098 9.55201 69.385 9.78481C69.57 10.0328 69.8193 10.1568 70.1314 10.1568C70.4117 10.1568 70.6358 10.0536 70.806 9.84641C70.9706 9.65521 71.0513 9.42481 71.0513 9.15601Z" fill="#4DCCB5"/>
<path d="M79.2391 8.82964C79.2391 9.40964 79.0704 9.88484 78.7331 10.2576C78.3794 10.6408 77.9117 10.832 77.3259 10.832C76.7628 10.832 76.3139 10.6488 75.9782 10.2808C75.6441 9.91364 75.4771 9.45044 75.4771 8.89204C75.4771 8.30804 75.649 7.82884 75.9945 7.45684C76.3399 7.08484 76.8044 6.89844 77.3902 6.89844C77.9533 6.89844 78.4071 7.08164 78.7494 7.44884C79.0753 7.80564 79.2391 8.26644 79.2391 8.82964ZM78.3542 8.85684C78.3542 8.50884 78.2776 8.21044 78.1252 7.96164C77.9451 7.66084 77.6909 7.51044 77.3585 7.51044C77.0162 7.51044 76.7555 7.66084 76.5754 7.96164C76.4222 8.21044 76.3465 8.51364 76.3465 8.87204C76.3465 9.22004 76.423 9.51844 76.5754 9.76724C76.7604 10.068 77.0179 10.2184 77.3503 10.2184C77.6762 10.2184 77.9329 10.0656 78.1171 9.75924C78.2743 9.50564 78.3542 9.20484 78.3542 8.85684Z" fill="#4DCCB5"/>
<path d="M83.8308 10.7464H82.9777V8.5864C82.9777 7.9208 82.7202 7.588 82.2028 7.588C81.9494 7.588 81.7449 7.6792 81.5868 7.8624C81.4288 8.0456 81.3497 8.2616 81.3497 8.5088V10.7456H80.495V8.0528C80.495 7.7216 80.4852 7.3624 80.4648 6.9736H81.2145L81.2544 7.5632H81.278C81.3783 7.38 81.5265 7.2288 81.7205 7.108C81.9527 6.9672 82.211 6.896 82.4954 6.896C82.8531 6.896 83.1513 7.0096 83.3884 7.2376C83.6842 7.5168 83.8308 7.9336 83.8308 8.4872V10.7464Z" fill="#4DCCB5"/>
<path d="M89.5776 7.60321H88.6373V9.43521C88.6373 9.90081 88.8043 10.1336 89.1352 10.1336C89.2883 10.1336 89.4155 10.1208 89.5157 10.0944L89.5377 10.7304C89.369 10.7928 89.1474 10.824 88.8744 10.824C88.5371 10.824 88.2747 10.7232 88.0849 10.5216C87.8942 10.32 87.7997 9.98081 87.7997 9.50481V7.60321H87.2383V6.97521H87.7997V6.28401L88.6365 6.03601V6.97441H89.5768V7.60321H89.5776Z" fill="#4DCCB5"/>
<path d="M94.0981 10.7464H93.2433V8.60241C93.2433 7.92641 92.9858 7.58801 92.4701 7.58801C92.0741 7.58801 91.8035 7.78401 91.6552 8.17601C91.63 8.25841 91.6153 8.35921 91.6153 8.47761V10.7456H90.7622V5.24481H91.6153V7.51761H91.6316C91.9005 7.10401 92.2859 6.89761 92.7854 6.89761C93.139 6.89761 93.4316 7.01121 93.6638 7.23921C93.953 7.52321 94.0981 7.94561 94.0981 8.50401V10.7464Z" fill="#4DCCB5"/>
<path d="M98.7611 8.68243C98.7611 8.83283 98.7497 8.95923 98.7293 9.06243H96.1683C96.1797 9.43523 96.302 9.71924 96.5391 9.91603C96.7558 10.092 97.0353 10.18 97.3775 10.18C97.7564 10.18 98.1019 10.1208 98.4132 10.0016L98.5468 10.584C98.1826 10.7392 97.754 10.8168 97.2577 10.8168C96.6629 10.8168 96.1944 10.6448 95.8555 10.3008C95.5149 9.95684 95.3462 9.49524 95.3462 8.91604C95.3462 8.34724 95.5035 7.87363 95.8204 7.49603C96.1512 7.09283 96.5986 6.89124 97.1632 6.89124C97.7157 6.89124 98.1353 7.09283 98.4189 7.49603C98.6478 7.81603 98.7611 8.21203 98.7611 8.68243ZM97.9463 8.46563C97.9528 8.21683 97.8966 8.00244 97.7809 7.82164C97.6326 7.58884 97.4069 7.47204 97.1013 7.47204C96.8226 7.47204 96.5953 7.58564 96.4217 7.81364C96.28 7.99524 96.196 8.21203 96.1683 8.46563H97.9463Z" fill="#4DCCB5"/>
<path d="M43.7106 25.2032H41.8602L40.8465 22.076H37.3233L36.3577 25.2032H34.5562L38.0468 14.5568H40.2028L43.7106 25.2032ZM40.541 20.764L39.6243 17.984C39.5273 17.7 39.3456 17.0312 39.0776 15.9784H39.045C38.9382 16.4312 38.7663 17.1 38.53 17.984L37.6296 20.764H40.541Z" fill="#4DCCB5"/>
<path d="M52.6874 21.2704C52.6874 22.576 52.3281 23.608 51.6094 24.3656C50.9657 25.04 50.1664 25.3768 49.2122 25.3768C48.1823 25.3768 47.4425 25.0136 46.9919 24.2872H46.9593V28.3312H45.2221V20.0536C45.2221 19.2328 45.2001 18.3904 45.1577 17.5264H46.6855L46.7825 18.7432H46.815C47.3944 17.8264 48.2736 17.3688 49.4534 17.3688C50.3758 17.3688 51.1458 17.7264 51.7618 18.4424C52.3794 19.1592 52.6874 20.1016 52.6874 21.2704ZM50.9176 21.3328C50.9176 20.5856 50.7465 19.9696 50.4027 19.4848C50.027 18.9792 49.5227 18.7264 48.8904 18.7264C48.4618 18.7264 48.0723 18.8672 47.7244 19.1448C47.3756 19.4248 47.1475 19.7904 47.0407 20.2432C46.987 20.4544 46.9601 20.6272 46.9601 20.7632V22.0432C46.9601 22.6016 47.1345 23.0728 47.4832 23.4576C47.8319 23.8424 48.285 24.0344 48.8423 24.0344C49.4966 24.0344 50.0059 23.7864 50.3701 23.292C50.7351 22.7968 50.9176 22.144 50.9176 21.3328Z" fill="#4DCCB5"/>
<path d="M61.6807 21.2704C61.6807 22.576 61.3214 23.608 60.6019 24.3656C59.959 25.04 59.1597 25.3768 58.2056 25.3768C57.1756 25.3768 56.4358 25.0136 55.986 24.2872H55.9534V28.3312H54.2162V20.0536C54.2162 19.2328 54.1942 18.3904 54.1519 17.5264H55.6796L55.7766 18.7432H55.8092C56.3877 17.8264 57.2669 17.3688 58.4476 17.3688C59.3691 17.3688 60.1391 17.7264 60.7567 18.4424C61.3719 19.1592 61.6807 20.1016 61.6807 21.2704ZM59.911 21.3328C59.911 20.5856 59.739 19.9696 59.3952 19.4848C59.0196 18.9792 58.5168 18.7264 57.8837 18.7264C57.4543 18.7264 57.0656 18.8672 56.7169 19.1448C56.3682 19.4248 56.1408 19.7904 56.0341 20.2432C55.9811 20.4544 55.9534 20.6272 55.9534 20.7632V22.0432C55.9534 22.6016 56.1278 23.0728 56.4749 23.4576C56.8236 23.8416 57.2767 24.0344 57.8356 24.0344C58.4899 24.0344 58.9992 23.7864 59.3634 23.292C59.7285 22.7968 59.911 22.144 59.911 21.3328Z" fill="#4DCCB5"/>
<path d="M71.7354 22.2176C71.7354 23.1232 71.4152 23.86 70.7723 24.4288C70.0659 25.0504 69.0824 25.3608 67.8186 25.3608C66.6518 25.3608 65.7164 25.14 65.0083 24.6976L65.4108 23.276C66.1735 23.7288 67.0103 23.956 67.9221 23.956C68.5764 23.956 69.0856 23.8104 69.4515 23.5208C69.8157 23.2312 69.9974 22.8424 69.9974 22.3576C69.9974 21.9256 69.8475 21.5616 69.5468 21.2664C69.2478 20.9712 68.7483 20.6968 68.0508 20.4432C66.1523 19.748 65.2039 18.7296 65.2039 17.3904C65.2039 16.5152 65.5363 15.7976 66.202 15.2392C66.8653 14.68 67.7502 14.4008 68.8567 14.4008C69.8434 14.4008 70.6631 14.5696 71.3174 14.9064L70.8831 16.2968C70.272 15.9704 69.581 15.8072 68.8078 15.8072C68.1967 15.8072 67.7192 15.9552 67.377 16.2496C67.0877 16.5128 66.9427 16.8336 66.9427 17.2136C66.9427 17.6344 67.1081 17.9824 67.4405 18.256C67.7298 18.5088 68.2553 18.7824 69.018 19.0776C69.951 19.4464 70.6362 19.8776 71.077 20.372C71.5162 20.8648 71.7354 21.4816 71.7354 22.2176Z" fill="#4DCCB5"/>
<path d="M77.4791 18.8064H75.5642V22.5336C75.5642 23.4816 75.9016 23.9552 76.5779 23.9552C76.8883 23.9552 77.1458 23.9288 77.3495 23.876L77.3976 25.1712C77.0554 25.2968 76.6048 25.36 76.0466 25.36C75.3605 25.36 74.8244 25.1544 74.4374 24.744C74.052 24.3328 73.858 23.6432 73.858 22.6744V18.8048H72.7173V17.5248H73.858V16.1192L75.5642 15.6136V17.5248H77.4791V18.8064Z" fill="#4DCCB5"/>
<path d="M86.1184 21.3016C86.1184 22.4816 85.7745 23.4504 85.0885 24.208C84.369 24.988 83.414 25.3768 82.2236 25.3768C81.0763 25.3768 80.1629 25.0032 79.4817 24.256C78.8006 23.5088 78.46 22.5656 78.46 21.4288C78.46 20.2392 78.8103 19.2648 79.5135 18.5072C80.2151 17.7488 81.1619 17.3696 82.3523 17.3696C83.4996 17.3696 84.4228 17.7432 85.1194 18.4912C85.786 19.2168 86.1184 20.1536 86.1184 21.3016ZM84.316 21.3568C84.316 20.6488 84.162 20.0416 83.85 19.5352C83.4857 18.9224 82.9651 18.6168 82.2904 18.6168C81.5921 18.6168 81.0617 18.9232 80.6974 19.5352C80.3854 20.0424 80.2314 20.6592 80.2314 21.3888C80.2314 22.0968 80.3854 22.704 80.6974 23.2096C81.0731 23.8224 81.5978 24.128 82.2749 24.128C82.9382 24.128 83.4588 23.816 83.8345 23.1936C84.1547 22.6776 84.316 22.064 84.316 21.3568Z" fill="#4DCCB5"/>
<path d="M91.7653 19.0264C91.5934 18.9952 91.41 18.9792 91.2178 18.9792C90.6066 18.9792 90.134 19.2056 89.8016 19.6592C89.5123 20.0592 89.3673 20.5648 89.3673 21.1752V25.2032H87.6309L87.6472 19.944C87.6472 19.0592 87.6252 18.2536 87.582 17.5272H89.0952L89.1587 18.996H89.2068C89.3901 18.4912 89.6794 18.0848 90.0754 17.78C90.4624 17.5056 90.8804 17.3688 91.331 17.3688C91.4915 17.3688 91.6366 17.38 91.7653 17.4V19.0264Z" fill="#4DCCB5"/>
<path d="M99.5342 21.0016C99.5342 21.3072 99.5138 21.5648 99.4706 21.7752H94.2591C94.2794 22.5336 94.5312 23.1136 95.0152 23.5136C95.4544 23.8712 96.0223 24.0504 96.7198 24.0504C97.4914 24.0504 98.1954 23.9296 98.8286 23.6872L99.1007 24.8712C98.3608 25.188 97.4874 25.3456 96.4794 25.3456C95.267 25.3456 94.3153 24.9952 93.6227 24.2952C92.9317 23.5952 92.5854 22.6552 92.5854 21.476C92.5854 20.3184 92.9073 19.3544 93.5518 18.5856C94.2265 17.7648 95.1383 17.3544 96.2855 17.3544C97.4124 17.3544 98.2655 17.7648 98.8448 18.5856C99.3036 19.2376 99.5342 20.044 99.5342 21.0016ZM97.8777 20.5592C97.8891 20.0536 97.7758 19.6168 97.5403 19.248C97.2397 18.7736 96.7777 18.5368 96.156 18.5368C95.588 18.5368 95.126 18.768 94.7732 19.232C94.484 19.6008 94.312 20.0432 94.2591 20.5584H97.8777V20.5592Z" fill="#4DCCB5"/>
</svg>
