<svg width="26" height="33" viewBox="0 0 26 33" fill="none" xmlns="http://www.w3.org/2000/svg">
<path d="M12.9026 30.0532L12.897 30.0587L12.8915 30.0644C12.5126 30.4628 12.1283 30.8455 11.7181 31.1846C11.5321 31.3367 11.3325 31.466 11.1238 31.5694H2.07218C4.02259 29.6383 8.23733 25.472 11.7327 22.0169C13.8874 19.8869 15.7688 18.0271 16.6778 17.1279C17.1252 17.5747 17.7047 18.1536 18.3694 18.8244L18.3696 18.8247C19.7925 20.2584 20.0626 22.895 18.5021 24.481C16.648 26.3494 14.7778 28.2026 12.9026 30.0532Z" fill="url(#paint0_linear_1301_818)" stroke="white"/>
<path d="M24.7147 17.2646L24.714 17.2666C24.5707 17.6737 24.357 18.052 24.084 18.377C22.8838 19.6602 21.6674 20.9308 20.4408 22.1921C20.6295 20.6039 20.0683 18.951 19.0009 17.8685C18.2888 17.1461 17.6751 16.5291 17.2179 16.0695C17.1793 16.0308 17.1419 15.9932 17.1057 15.9567V15.9503L16.9572 15.8035C15.5865 14.4487 8.51658 7.37553 4.37196 3.22904C3.6019 2.45864 2.93283 1.78927 2.42006 1.27637H11.0439C11.1126 1.31879 11.1822 1.3665 11.2509 1.41751C11.5052 1.60927 11.7475 1.80459 11.9681 2.01351C15.9188 5.97607 19.8842 9.92677 23.8491 13.8694L23.8521 13.8723C24.2092 14.2215 24.4895 14.6518 24.6815 15.1245C24.955 15.8012 24.9628 16.5693 24.7147 17.2646Z" fill="#07689F" stroke="white"/>
<defs>
<linearGradient id="paint0_linear_1301_818" x1="10.7156" y1="13.4619" x2="-0.602277" y2="29.6134" gradientUnits="userSpaceOnUse">
<stop stop-color="#267567"/>
<stop offset="0.0703653" stop-color="#329281"/>
<stop offset="0.1482" stop-color="#48B8A4"/>
<stop offset="0.250633" stop-color="#4DCCB5"/>
<stop offset="0.34412" stop-color="#52D4BD"/>
<stop offset="0.534338" stop-color="#52D4BD"/>
<stop offset="1" stop-color="#52D4BD"/>
</linearGradient>
</defs>
</svg>
