<svg width="15" height="16" viewBox="0 0 15 16" fill="none" xmlns="http://www.w3.org/2000/svg">
<g clip-path="url(#clip0_1301_810)">
<path d="M8.10414 1.57684C8.10414 1.41151 8.16982 1.25294 8.28673 1.13604C8.40364 1.01913 8.5622 0.953449 8.72753 0.953449C10.3803 0.955264 11.9649 1.61263 13.1336 2.78132C14.3023 3.95002 14.9596 5.53458 14.9614 7.18736C14.9614 7.3527 14.8958 7.51126 14.7789 7.62817C14.662 7.74508 14.5034 7.81075 14.3381 7.81075C14.1727 7.81075 14.0142 7.74508 13.8972 7.62817C13.7803 7.51126 13.7147 7.3527 13.7147 7.18736C13.7132 5.86515 13.1873 4.59752 12.2523 3.66257C11.3174 2.72762 10.0497 2.20172 8.72753 2.20023C8.5622 2.20023 8.40364 2.13455 8.28673 2.01764C8.16982 1.90074 8.10414 1.74217 8.10414 1.57684ZM8.72753 4.6938C9.38887 4.6938 10.0231 4.95651 10.4907 5.42415C10.9584 5.89178 11.2211 6.52603 11.2211 7.18736C11.2211 7.3527 11.2868 7.51126 11.4037 7.62817C11.5206 7.74508 11.6792 7.81075 11.8445 7.81075C12.0098 7.81075 12.1684 7.74508 12.2853 7.62817C12.4022 7.51126 12.4679 7.3527 12.4679 7.18736C12.4669 6.19566 12.0725 5.24487 11.3713 4.54363C10.67 3.84239 9.71923 3.448 8.72753 3.44701C8.5622 3.44701 8.40364 3.51269 8.28673 3.6296C8.16982 3.74651 8.10414 3.90507 8.10414 4.07041C8.10414 4.23574 8.16982 4.3943 8.28673 4.51121C8.40364 4.62812 8.5622 4.6938 8.72753 4.6938ZM14.396 11.3884C14.7573 11.7507 14.9602 12.2414 14.9602 12.753C14.9602 13.2646 14.7573 13.7553 14.396 14.1176L13.8287 14.7715C8.72317 19.6596 -3.70102 7.23848 1.11156 2.1167L1.82846 1.49331C2.19113 1.14214 2.67748 0.947869 3.18228 0.952536C3.68709 0.957202 4.16976 1.16043 4.52588 1.51824C4.5452 1.53757 5.70034 3.03807 5.70034 3.03807C6.0431 3.39816 6.23391 3.87649 6.2331 4.37363C6.23228 4.87076 6.03991 5.34847 5.69598 5.70743L4.97409 6.61509C5.37359 7.58578 5.96096 8.46796 6.70245 9.21095C7.44394 9.95394 8.32494 10.5431 9.29482 10.9445L10.2081 10.2183C10.5671 9.87462 11.0447 9.68248 11.5417 9.68179C12.0387 9.68109 12.5168 9.87189 12.8768 10.2146C12.8768 10.2146 14.3767 11.3691 14.396 11.3884ZM13.5382 12.2948C13.5382 12.2948 12.0465 11.1471 12.0271 11.1278C11.8987 11.0005 11.7252 10.929 11.5443 10.929C11.3635 10.929 11.1899 11.0005 11.0615 11.1278C11.0447 11.1453 9.7873 12.1471 9.7873 12.1471C9.70257 12.2145 9.60172 12.2587 9.49471 12.2753C9.38769 12.2919 9.27819 12.2804 9.177 12.2418C7.92053 11.774 6.77927 11.0416 5.83053 10.0943C4.88179 9.14694 4.14773 8.00677 3.67806 6.75099C3.63642 6.64841 3.62284 6.5366 3.63873 6.42704C3.65462 6.31747 3.69939 6.21412 3.76845 6.1276C3.76845 6.1276 4.77024 4.86959 4.78708 4.85339C4.91441 4.72496 4.98586 4.55142 4.98586 4.37057C4.98586 4.18971 4.91441 4.01618 4.78708 3.88775C4.76775 3.86905 3.62009 2.37603 3.62009 2.37603C3.48974 2.25915 3.31961 2.19655 3.14459 2.20107C2.96957 2.20559 2.80291 2.27689 2.67877 2.40034L1.96187 3.02373C-1.55531 7.25282 9.21128 17.4222 12.9173 13.92L13.4853 13.2654C13.6183 13.1422 13.6983 12.972 13.7082 12.7908C13.718 12.6097 13.6571 12.4318 13.5382 12.2948Z" fill="#4DCCB5"/>
</g>
<defs>
<clipPath id="clip0_1301_810">
<rect width="14.9614" height="14.9614" fill="white" transform="translate(0 0.953613)"/>
</clipPath>
</defs>
</svg>
