<svg width="40" height="40" viewBox="0 0 40 40" fill="none" xmlns="http://www.w3.org/2000/svg">
<g clip-path="url(#clip0_1301_678)">
<path d="M20 0C8.97156 0 0 8.97156 0 20C0 31.0284 8.97156 40 20 40C31.0284 40 40 31.0284 40 20C40 8.97156 31.0284 0 20 0Z" fill="white"/>
<path d="M30.1365 15.7617L19.303 26.5948C18.978 26.9199 18.5514 27.0834 18.1248 27.0834C17.6981 27.0834 17.2715 26.9199 16.9465 26.5948L11.5299 21.1783C10.8781 20.5267 10.8781 19.4733 11.5299 18.8217C12.1815 18.1699 13.2346 18.1699 13.8865 18.8217L18.1248 23.06L27.7799 13.4052C28.4315 12.7533 29.4846 12.7533 30.1365 13.4052C30.788 14.0567 30.788 15.1099 30.1365 15.7617V15.7617Z" fill="#2B679B"/>
</g>
<defs>
<clipPath id="clip0_1301_678">
<rect width="40" height="40" fill="white"/>
</clipPath>
</defs>
</svg>
