<svg width="109" height="109" viewBox="0 0 109 109" fill="none" xmlns="http://www.w3.org/2000/svg">
<path d="M19.1572 79.834V69.4023C19.1572 62.8287 24.5055 57.4805 31.0791 57.4805C37.6527 57.4805 43.001 62.8287 43.001 69.4023V91.3028C43.001 101.061 50.9399 109 60.6982 109C70.4564 109 78.3953 101.061 78.3953 91.3028V88.9981L88.163 65.9439L82.2823 63.4525L75.202 80.1638L68.1219 63.4525L62.2412 65.9439L72.0086 88.9981V91.3028C72.0086 97.5395 66.9348 102.613 60.6982 102.613C54.4615 102.613 49.3877 97.5395 49.3877 91.3028V69.4023C49.3877 59.3071 41.1744 51.0938 31.0791 51.0938C20.9838 51.0938 12.7705 59.3071 12.7705 69.4023V79.834H19.1572Z" fill="#5A5A5A"/>
<path d="M75.2021 80.1638V101.425C77.2116 98.5545 78.3955 95.0653 78.3955 91.303V88.9983L88.1631 65.9442L82.2825 63.4527L75.2021 80.1638Z" fill="#3C3C3C"/>
<path d="M90.1047 4.25781H95.1532C99.5351 4.25781 103.562 6.26431 106.201 9.76253C108.839 13.2607 109.662 17.6838 108.459 21.8973L99.983 51.5619C98.4319 56.9906 95.2296 61.657 90.7223 65.057C86.2149 68.4569 80.8484 70.2541 75.2025 70.2541C69.5567 70.2541 64.1899 68.4571 59.6826 65.057C55.1753 61.6572 51.973 56.9906 50.4219 51.5619L41.9463 21.8973C40.7424 17.684 41.5654 13.2612 44.2042 9.76274C46.8429 6.26431 50.8696 4.25781 55.2515 4.25781H60.2998V10.6445H55.2515C52.892 10.6445 50.7237 11.725 49.3029 13.6086C47.8821 15.4923 47.4388 17.8739 48.0871 20.1426L56.5627 49.8073C58.9279 58.0855 66.5928 63.8672 75.2023 63.8672C83.8118 63.8672 91.4767 58.0855 93.842 49.8075L102.318 20.1429C102.966 17.8741 102.523 15.4925 101.102 13.6088C99.6809 11.725 97.5126 10.6445 95.1529 10.6445H90.1045V4.25781H90.1047Z" fill="white"/>
<path d="M95.1528 4.25781H90.1043V10.6445H95.1528C97.5122 10.6445 99.6805 11.725 101.101 13.6086C102.522 15.4923 102.965 17.8739 102.317 20.1426L93.8416 49.8073C91.4766 58.0855 83.8117 63.8672 75.2021 63.8672V70.2539C80.848 70.2539 86.2148 68.4569 90.7219 65.0568C95.2292 61.657 98.4315 56.9904 99.9826 51.5617L108.458 21.8971C109.662 17.6835 108.839 13.2607 106.2 9.76231C103.562 6.26388 99.5349 4.25781 95.1528 4.25781Z" fill="white"/>
<path d="M60.2998 14.9023C58.5362 14.9023 57.1064 13.4726 57.1064 11.709V3.19336C57.1064 1.42977 58.5362 0 60.2998 0C62.0634 0 63.4932 1.42977 63.4932 3.19336V11.709C63.4932 13.4726 62.0634 14.9023 60.2998 14.9023Z" fill="#4D8CC2"/>
<path d="M90.1045 14.9023C88.3409 14.9023 86.9111 13.4726 86.9111 11.709V3.19336C86.9111 1.42977 88.3409 0 90.1045 0C91.8681 0 93.2979 1.42977 93.2979 3.19336V11.709C93.2979 13.4726 91.8681 14.9023 90.1045 14.9023Z" fill="#4D8CC2"/>
<path d="M15.9668 105.381C23.0214 105.381 28.7402 99.662 28.7402 92.6074C28.7402 85.5528 23.0214 79.834 15.9668 79.834C8.91222 79.834 3.19336 85.5528 3.19336 92.6074C3.19336 99.662 8.91222 105.381 15.9668 105.381Z" fill="#82E3D2"/>
<path d="M15.9668 108.574C7.1627 108.574 0 101.412 0 92.6074C0 83.8033 7.1627 76.6406 15.9668 76.6406C24.7709 76.6406 31.9336 83.8033 31.9336 92.6074C31.9336 101.412 24.7709 108.574 15.9668 108.574ZM15.9668 83.0273C10.6843 83.0273 6.38672 87.325 6.38672 92.6074C6.38672 97.8899 10.6843 102.188 15.9668 102.188C21.2493 102.188 25.5469 97.8899 25.5469 92.6074C25.5469 87.325 21.2493 83.0273 15.9668 83.0273Z" fill="#52D4BD"/>
<path d="M15.9668 95.8008C17.7304 95.8008 19.1602 94.3711 19.1602 92.6074C19.1602 90.8438 17.7304 89.4141 15.9668 89.4141C14.2032 89.4141 12.7734 90.8438 12.7734 92.6074C12.7734 94.3711 14.2032 95.8008 15.9668 95.8008Z" fill="#52D4BD"/>
</svg>
