<svg width="30" height="30" viewBox="0 0 30 30" fill="none" xmlns="http://www.w3.org/2000/svg">
<rect y="6.10352e-05" width="29.966" height="29.966" rx="5" fill="white" fill-opacity="0.06"/>
<g clip-path="url(#clip0_1301_827)">
<path d="M24.2583 15.3946C24.2583 19.8457 20.9926 23.5357 16.7296 24.2053V17.9899H18.8024L19.197 15.4184H16.7296V13.7499C16.7296 13.0461 17.0745 12.3609 18.1789 12.3609H19.3004V10.1714C19.3004 10.1714 18.2822 9.99749 17.3093 9.99749C15.2774 9.99749 13.95 11.229 13.95 13.4578V15.4177H11.6914V17.9892H13.95V24.2046C9.68776 23.5342 6.42139 19.8449 6.42139 15.3946C6.42139 10.4694 10.4146 6.4762 15.3398 6.4762C20.265 6.4762 24.2583 10.4687 24.2583 15.3946Z" fill="white"/>
</g>
<defs>
<clipPath id="clip0_1301_827">
<rect width="17.8369" height="17.8369" fill="white" transform="translate(6.42139 6.42175)"/>
</clipPath>
</defs>
</svg>
