<svg width="16" height="20" viewBox="0 0 16 20" fill="none" xmlns="http://www.w3.org/2000/svg">
<path d="M4.66699 3.33335V13.3334C4.66699 13.7754 4.84259 14.1993 5.15515 14.5119C5.46771 14.8244 5.89163 15 6.33366 15H13.0003C13.4424 15 13.8663 14.8244 14.1788 14.5119C14.4914 14.1993 14.667 13.7754 14.667 13.3334V6.03502C14.667 5.81299 14.6226 5.5932 14.5364 5.38856C14.4503 5.18392 14.3241 4.99855 14.1653 4.84335L11.4028 2.14169C11.0915 1.83724 10.6733 1.66674 10.2378 1.66669H6.33366C5.89163 1.66669 5.46771 1.84228 5.15515 2.15484C4.84259 2.4674 4.66699 2.89133 4.66699 3.33335V3.33335Z" stroke="black" stroke-width="1.5" stroke-linecap="round" stroke-linejoin="round"/>
<path d="M11.3335 15V16.6667C11.3335 17.1087 11.1579 17.5327 10.8453 17.8452C10.5328 18.1578 10.1089 18.3334 9.66683 18.3334H3.00016C2.55814 18.3334 2.13421 18.1578 1.82165 17.8452C1.50909 17.5327 1.3335 17.1087 1.3335 16.6667V7.50004C1.3335 7.05801 1.50909 6.63409 1.82165 6.32153C2.13421 6.00897 2.55814 5.83337 3.00016 5.83337H4.66683" stroke="black" stroke-width="1.5" stroke-linecap="round" stroke-linejoin="round"/>
</svg>
