<svg width="110" height="32" viewBox="0 0 110 32" fill="none" xmlns="http://www.w3.org/2000/svg">
<path d="M105.926 0.641C107.812 0.641 109.347 2.148 109.347 4V28C109.347 29.852 107.812 31.359 105.926 31.359H4.07407C2.18778 31.359 0.65287 29.852 0.65287 28V4C0.65287 2.148 2.18778 0.641 4.07407 0.641H105.926ZM105.926 1.90735e-06H4.07407C1.83435 1.90735e-06 0 1.801 0 4V28C0 30.199 1.83435 32 4.07407 32H105.926C108.166 32 110 30.199 110 28V4C110 1.801 108.166 1.90735e-06 105.926 1.90735e-06Z" fill="#4DCCB5"/>
<path d="M7.89154 6.03104C7.65219 6.27704 7.51367 6.66004 7.51367 7.15604V24.848C7.51367 25.344 7.65219 25.727 7.89154 25.973L7.95062 26.027L18.0482 16.117V15.883L7.95062 5.97304L7.89154 6.03104Z" fill="#4DCCB5"/>
<path d="M22.6326 19.422L19.2705 16.117V15.883L22.6367 12.578L22.7121 12.621L26.6986 14.848C27.8362 15.48 27.8362 16.52 26.6986 17.156L22.7121 19.379L22.6326 19.422Z" fill="#4DCCB5"/>
<path d="M22.1007 19.9944L18.6591 16.6154L8.50244 26.5884C8.88031 26.9784 9.49651 27.0254 10.1973 26.6354L22.1007 19.9944Z" fill="#4DCCB5"/>
<path d="M22.1007 12.0056L10.1973 5.36465C9.49651 4.97865 8.88031 5.02564 8.50244 5.41564L18.6591 15.3846L22.1007 12.0056Z" fill="#4DCCB5"/>
<path d="M38.6367 8.195C38.6367 8.863 38.433 9.398 38.0317 9.797C37.5703 10.27 36.9694 10.508 36.233 10.508C35.5292 10.508 34.9282 10.266 34.4353 9.789C33.9413 9.305 33.6948 8.711 33.6948 8C33.6948 7.289 33.9413 6.695 34.4353 6.215C34.9282 5.734 35.5292 5.492 36.233 5.492C36.5833 5.492 36.9174 5.563 37.2362 5.695C37.554 5.828 37.8127 6.008 38.0001 6.23L37.5744 6.652C37.2474 6.273 36.8023 6.086 36.233 6.086C35.7196 6.086 35.2745 6.262 34.8967 6.617C34.5229 6.973 34.3355 7.434 34.3355 8C34.3355 8.566 34.5229 9.031 34.8967 9.387C35.2745 9.738 35.7196 9.918 36.233 9.918C36.7779 9.918 37.2362 9.738 37.5978 9.383C37.8361 9.148 37.9716 8.824 38.0072 8.41H36.233V7.832H38.6C38.6285 7.957 38.6367 8.078 38.6367 8.195Z" fill="#4DCCB5" stroke="#4DCCB5" stroke-width="0.16" stroke-miterlimit="10"/>
<path d="M42.3919 6.19099H40.1685V7.71099H42.1729V8.28899H40.1685V9.80899H42.3919V10.398H39.5391V5.60199H42.3919V6.19099Z" fill="#4DCCB5" stroke="#4DCCB5" stroke-width="0.16" stroke-miterlimit="10"/>
<path d="M45.0421 10.398H44.4126V6.19099H43.0488V5.60199H46.4069V6.19099H45.0421V10.398Z" fill="#4DCCB5" stroke="#4DCCB5" stroke-width="0.16" stroke-miterlimit="10"/>
<path d="M48.8369 10.398V5.60199H49.4653V10.398H48.8369Z" fill="#4DCCB5" stroke="#4DCCB5" stroke-width="0.16" stroke-miterlimit="10"/>
<path d="M52.251 10.398H51.6267V6.19099H50.2578V5.60199H53.6199V6.19099H52.251V10.398Z" fill="#4DCCB5" stroke="#4DCCB5" stroke-width="0.16" stroke-miterlimit="10"/>
<path d="M59.9776 9.781C59.4959 10.266 58.899 10.508 58.1871 10.508C57.4711 10.508 56.8742 10.266 56.3925 9.781C55.9117 9.297 55.6724 8.703 55.6724 8C55.6724 7.297 55.9117 6.703 56.3925 6.219C56.8742 5.734 57.4711 5.492 58.1871 5.492C58.895 5.492 59.4918 5.734 59.9736 6.223C60.4584 6.711 60.6977 7.301 60.6977 8C60.6977 8.703 60.4584 9.297 59.9776 9.781ZM56.8579 9.379C57.2205 9.738 57.6615 9.918 58.1871 9.918C58.7086 9.918 59.1537 9.738 59.5122 9.379C59.8738 9.02 60.0571 8.559 60.0571 8C60.0571 7.441 59.8738 6.98 59.5122 6.621C59.1537 6.262 58.7086 6.082 58.1871 6.082C57.6615 6.082 57.2205 6.262 56.8579 6.621C56.4963 6.98 56.313 7.441 56.313 8C56.313 8.559 56.4963 9.02 56.8579 9.379Z" fill="#4DCCB5" stroke="#4DCCB5" stroke-width="0.16" stroke-miterlimit="10"/>
<path d="M61.5811 10.398V5.60199H62.3449L64.7201 9.33199H64.7476L64.7201 8.40999V5.60199H65.3486V10.398H64.6926L62.2054 6.48399H62.1779L62.2054 7.40999V10.398H61.5811Z" fill="#4DCCB5" stroke="#4DCCB5" stroke-width="0.16" stroke-miterlimit="10"/>
<path d="M55.5173 17.402C53.6035 17.402 52.0401 18.832 52.0401 20.805C52.0401 22.762 53.6035 24.207 55.5173 24.207C57.4352 24.207 58.9986 22.762 58.9986 20.805C58.9986 18.832 57.4352 17.402 55.5173 17.402ZM55.5173 22.867C54.4672 22.867 53.5638 22.016 53.5638 20.805C53.5638 19.578 54.4672 18.742 55.5173 18.742C56.5674 18.742 57.4749 19.578 57.4749 20.805C57.4749 22.016 56.5674 22.867 55.5173 22.867ZM47.9304 17.402C46.0125 17.402 44.4532 18.832 44.4532 20.805C44.4532 22.762 46.0125 24.207 47.9304 24.207C49.8472 24.207 51.4076 22.762 51.4076 20.805C51.4076 18.832 49.8472 17.402 47.9304 17.402ZM47.9304 22.867C46.8793 22.867 45.9728 22.016 45.9728 20.805C45.9728 19.578 46.8793 18.742 47.9304 18.742C48.9805 18.742 49.8839 19.578 49.8839 20.805C49.8839 22.016 48.9805 22.867 47.9304 22.867ZM38.9023 18.445V19.891H42.4192C42.3163 20.699 42.0413 21.293 41.6197 21.707C41.1063 22.207 40.3068 22.762 38.9023 22.762C36.7379 22.762 35.0431 21.047 35.0431 18.922C35.0431 16.797 36.7379 15.082 38.9023 15.082C40.0725 15.082 40.924 15.531 41.5524 16.113L42.5903 15.094C41.7113 14.27 40.5421 13.637 38.9023 13.637C35.9343 13.637 33.4399 16.008 33.4399 18.922C33.4399 21.836 35.9343 24.207 38.9023 24.207C40.5064 24.207 41.7113 23.691 42.6585 22.723C43.6292 21.77 43.9317 20.43 43.9317 19.348C43.9317 19.012 43.9032 18.703 43.8523 18.445H38.9023ZM75.8195 19.566C75.5333 18.805 74.6502 17.402 72.8515 17.402C71.0691 17.402 69.5851 18.781 69.5851 20.805C69.5851 22.711 71.0538 24.207 73.0226 24.207C74.6146 24.207 75.5333 23.254 75.9111 22.699L74.7296 21.926C74.3355 22.492 73.7987 22.867 73.0226 22.867C72.2516 22.867 71.6985 22.52 71.3441 21.836L75.9794 19.953L75.8195 19.566ZM71.0935 20.699C71.0538 19.387 72.1314 18.715 72.9034 18.715C73.5084 18.715 74.0218 19.012 74.1929 19.437L71.0935 20.699ZM67.326 24H68.8497V14H67.326V24ZM64.8307 18.16H64.7797C64.4375 17.762 63.7847 17.402 62.9576 17.402C61.2221 17.402 59.6352 18.898 59.6352 20.816C59.6352 22.723 61.2221 24.207 62.9576 24.207C63.7847 24.207 64.4375 23.844 64.7797 23.434H64.8307V23.922C64.8307 25.223 64.1228 25.922 62.981 25.922C62.0501 25.922 61.4726 25.262 61.2343 24.707L59.9092 25.25C60.2911 26.152 61.3025 27.262 62.981 27.262C64.7675 27.262 66.2749 26.23 66.2749 23.719V17.609H64.8307V18.16ZM63.088 22.867C62.0379 22.867 61.1589 22.004 61.1589 20.816C61.1589 19.617 62.0379 18.742 63.088 18.742C64.1228 18.742 64.9386 19.617 64.9386 20.816C64.9386 22.004 64.1228 22.867 63.088 22.867ZM82.9532 14H79.3089V24H80.8285V20.211H82.9532C84.6408 20.211 86.2959 19.012 86.2959 17.105C86.2959 15.199 84.6368 14 82.9532 14ZM82.9929 18.82H80.8285V15.391H82.9929C84.1275 15.391 84.7753 16.316 84.7753 17.105C84.7753 17.879 84.1275 18.82 82.9929 18.82ZM92.3867 17.383C91.2887 17.383 90.147 17.859 89.6774 18.914L91.0259 19.469C91.3162 18.914 91.8499 18.734 92.4142 18.734C93.2025 18.734 94.002 19.199 94.0143 20.02V20.125C93.7393 19.969 93.1506 19.738 92.4264 19.738C90.974 19.738 89.4941 20.523 89.4941 21.988C89.4941 23.328 90.6837 24.191 92.021 24.191C93.0436 24.191 93.6079 23.738 93.9623 23.211H94.0143V23.984H95.482V20.148C95.482 18.375 94.1334 17.383 92.3867 17.383ZM92.2033 22.863C91.7063 22.863 91.0137 22.621 91.0137 22.016C91.0137 21.242 91.8774 20.945 92.625 20.945C93.2942 20.945 93.6079 21.09 94.0143 21.281C93.8951 22.207 93.0833 22.863 92.2033 22.863ZM100.829 17.602L99.0824 21.937H99.0305L97.2246 17.602H95.5858L98.2992 23.66L96.751 27.031H98.3389L102.52 17.602H100.829ZM87.1311 24H88.6548V14H87.1311V24Z" fill="#4DCCB5"/>
</svg>
