<svg width="31" height="30" viewBox="0 0 31 30" fill="none" xmlns="http://www.w3.org/2000/svg">
<rect x="0.448242" width="29.966" height="29.966" rx="5" fill="white" fill-opacity="0.06"/>
<g clip-path="url(#clip0_1301_836)">
<path d="M20.2149 24.2588H11.3708C11.3141 24.2488 11.2579 24.2352 11.2008 24.2291C10.7185 24.1794 10.2471 24.0726 9.81055 23.8663C7.92189 22.9749 6.91237 21.4786 6.88883 19.3883C6.85612 16.6897 6.87966 13.9901 6.88141 11.2911C6.88141 10.4459 7.06543 9.63995 7.49584 8.91034C8.45957 7.27624 9.90299 6.43978 11.7986 6.42975C14.4622 6.41579 17.1257 6.42277 19.7893 6.42975C20.1259 6.42402 20.4622 6.45473 20.7923 6.52133C22.7581 6.96093 24.0193 8.16067 24.5617 10.1014C24.6363 10.3665 24.6612 10.6456 24.7091 10.9186V19.7655C24.6803 19.9535 24.6629 20.1441 24.6219 20.329C24.1758 22.2985 22.9823 23.5654 21.0369 24.1114C20.7679 24.1859 20.4883 24.2091 20.2149 24.2588ZM15.7953 20.2178C18.4754 20.2152 20.6697 18.0176 20.6671 15.3399C20.6645 12.6622 18.4676 10.4642 15.7913 10.4668C13.1151 10.4694 10.9169 12.667 10.9195 15.3447C10.9221 18.0224 13.1182 20.2208 15.7953 20.2178ZM20.7775 11.6151C21.5598 11.6203 22.2143 10.9723 22.2248 10.182C22.2348 9.40663 21.582 8.7468 20.7914 8.73459C20.0174 8.72238 19.3524 9.38221 19.3449 10.1681C19.3375 10.9539 19.9903 11.6099 20.7775 11.6151Z" fill="white"/>
<path d="M19.6218 15.341C19.6218 17.4465 17.8945 19.1752 15.79 19.1722C13.6855 19.1691 11.9569 17.4378 11.9639 15.3344C11.9692 14.322 12.3737 13.3526 13.0897 12.6369C13.8056 11.9211 14.7751 11.5168 15.7874 11.5119C17.8906 11.5067 19.6205 13.2337 19.6218 15.341Z" fill="white"/>
<path d="M20.7903 9.78271C20.8681 9.78404 20.9437 9.80846 21.0076 9.85287C21.0715 9.89727 21.1207 9.95967 21.1491 10.0321C21.1774 10.1046 21.1836 10.1838 21.1668 10.2598C21.15 10.3358 21.1111 10.4051 21.0548 10.4588C20.9986 10.5126 20.9277 10.5484 20.851 10.5618C20.7744 10.5752 20.6955 10.5655 20.6244 10.5339C20.5533 10.5023 20.4931 10.4504 20.4516 10.3846C20.4101 10.3187 20.3891 10.2421 20.3913 10.1643C20.3966 10.0618 20.4409 9.96524 20.515 9.89431C20.5892 9.82339 20.6877 9.78347 20.7903 9.78271Z" fill="white"/>
</g>
<defs>
<clipPath id="clip0_1301_836">
<rect width="17.8369" height="17.8369" fill="white" transform="translate(6.86963 6.42169)"/>
</clipPath>
</defs>
</svg>
