<svg width="120" height="24" viewBox="0 0 120 24" fill="none" xmlns="http://www.w3.org/2000/svg">
<g clip-path="url(#clip0_246_3307)">
<path d="M114.811 18.3867C113.39 19.8292 111.957 21.2597 110.522 22.6874C110.228 22.9987 109.921 23.3071 109.589 23.5833C109.401 23.7386 109.195 23.8685 108.977 23.9678H101.033C102.422 22.5784 111.755 13.2871 113.144 11.9014C113.505 12.2657 114.053 12.8152 114.709 13.482C115.921 14.7125 116.177 16.9889 114.811 18.3867Z" fill="url(#paint0_linear_246_3307)"/>
<path d="M119.73 12.8754C119.604 13.2338 119.415 13.5683 119.172 13.8565C117.742 15.3871 116.283 16.8939 114.812 18.3856C116.177 16.9872 115.921 14.7107 114.709 13.4802C114.053 12.8134 113.505 12.264 113.144 11.8996C113.144 11.8996 113.144 11.8996 113.144 11.8966C111.752 10.519 102.713 1.46 101.327 0.0734863H108.977C109.074 0.126498 109.172 0.190709 109.263 0.258654C109.466 0.411715 109.666 0.57299 109.851 0.749196C112.885 3.7955 115.93 6.83282 118.975 9.8642C119.29 10.1726 119.534 10.5489 119.699 10.9573C119.946 11.5681 119.951 12.2557 119.73 12.8754Z" fill="#52D4BD"/>
<path fill-rule="evenodd" clip-rule="evenodd" d="M88.9211 1.72314C91.9115 1.75292 94.8767 2.85101 96.9395 5.06581C100.502 8.70849 100.495 15.1281 96.9905 18.8102C94.8749 21.0965 91.7927 22.2117 88.7129 22.1938C85.6307 22.2117 82.5485 21.0965 80.4353 18.8102C76.9313 15.1281 76.9229 8.70777 80.4863 5.06581C82.5455 2.85101 85.5131 1.75367 88.5041 1.72314H88.9211ZM92.6129 16.8411C93.9611 15.6879 94.8078 14.0225 94.8869 12.2536C94.9428 10.9687 94.6451 9.66885 93.9905 8.56557L93.9797 8.57601C93.1001 7.40571 91.9733 6.33591 90.5159 5.96067C89.9747 5.79614 89.4119 5.70978 88.8503 5.69191C88.8353 5.69191 88.8197 5.69166 88.8047 5.69142C88.7741 5.69092 88.7429 5.69042 88.7129 5.69191C88.6823 5.69042 88.6517 5.69092 88.6211 5.69142C88.6055 5.69166 88.5906 5.69191 88.5756 5.69191C88.0104 5.70978 87.4487 5.79614 86.9093 5.96067C85.4519 6.33513 84.3233 7.40493 83.4455 8.57601C83.4431 8.57457 83.4413 8.57271 83.4395 8.57091C83.4377 8.56881 83.4359 8.56677 83.4329 8.56557C82.2425 10.5682 82.2323 13.2289 83.3843 15.2569L83.3927 15.267C83.9591 15.9836 84.5345 16.7117 85.3092 17.2163C86.3112 17.8699 87.5093 18.1945 88.7117 18.202C89.9123 18.1945 91.1129 17.8699 92.1143 17.2163C92.2901 17.1024 92.4551 16.9751 92.6129 16.8411Z" fill="#2B679B"/>
<path fill-rule="evenodd" clip-rule="evenodd" d="M11.1362 1.72314C14.1264 1.75292 17.092 2.85101 19.1545 5.06581C22.7169 8.70849 22.7094 15.1281 19.2052 18.8102C17.0898 21.0965 14.0076 22.2117 10.9278 22.1938C7.84562 22.2117 4.76354 21.0965 2.65028 18.8102C-0.853898 15.1281 -0.862112 8.70777 2.70107 5.06581C4.76055 2.85101 7.72838 1.75367 10.7194 1.72314H11.1362ZM14.8278 16.8411C16.1762 15.6879 17.0225 14.0225 17.1017 12.2536C17.1577 10.9687 16.8604 9.66885 16.2053 8.56557L16.1949 8.57601C15.3149 7.40571 14.1884 6.33591 12.731 5.96067C12.1894 5.79614 11.6269 5.70978 11.0652 5.69191C11.05 5.69191 11.0348 5.69166 11.0196 5.69142C10.9889 5.69092 10.9582 5.69042 10.9278 5.69191C10.8973 5.69042 10.8666 5.69092 10.836 5.69142C10.8207 5.69166 10.8055 5.69191 10.7903 5.69191C10.2256 5.70978 9.66386 5.79614 9.12452 5.96067C7.66712 6.33513 6.5384 7.40493 5.66068 8.57601C5.65823 8.57457 5.65644 8.57271 5.65469 8.57091C5.6527 8.56881 5.65076 8.56677 5.64798 8.56557C4.45727 10.5682 4.44755 13.2289 5.59943 15.2569L5.60744 15.267C6.17408 15.9836 6.74972 16.7117 7.52444 17.2163C8.52614 17.8699 9.72434 18.1945 10.927 18.202C12.1275 18.1945 13.3279 17.8699 14.3296 17.2163C14.5051 17.1024 14.6702 16.9751 14.8278 16.8411Z" fill="#2B679B"/>
<path d="M25.0915 21.8779C25.0758 15.2797 25.0572 8.68072 25.0975 2.08545C29.6833 2.11672 34.2728 2.08843 38.8594 2.0981C38.8594 2.11225 38.8594 2.12714 38.8594 2.14128C38.8594 4.15358 37.2219 5.78174 35.2028 5.78397C33.3772 5.78546 31.5508 5.79216 29.7251 5.77132C29.7378 7.49776 29.7192 9.22786 29.7348 10.9543C32.7744 10.97 35.8168 10.9602 38.8601 10.964V11.0161C38.8601 13.0247 37.2287 14.6536 35.2133 14.658C33.3899 14.6618 31.5672 14.6663 29.7446 14.6342C29.7244 15.8328 29.7259 17.0307 29.7273 18.2292C29.7296 20.2334 28.1049 21.8623 26.094 21.8727C25.7594 21.8727 25.4254 21.875 25.0915 21.8779Z" fill="#2B679B"/>
<path d="M43.1025 21.8782C43.125 15.2829 43.0899 8.68396 43.1213 2.08872C47.7108 2.10138 52.3034 2.11105 56.8952 2.08276C56.8944 2.11329 56.8944 2.14381 56.8944 2.17434C56.8735 4.17249 55.26 5.79693 53.255 5.79767C51.4174 5.79841 49.5783 5.75896 47.7422 5.77757C47.7609 7.501 47.7579 9.22744 47.7519 10.9509C50.8011 10.9695 53.8496 10.9695 56.9019 10.9509C56.9011 10.9874 56.9011 11.0231 56.9004 11.0596C56.8712 13.0533 55.2518 14.6621 53.2513 14.6613C51.4197 14.6613 49.588 14.645 47.7579 14.6583C47.7377 15.8391 47.7564 17.0213 47.7653 18.2035C47.7795 20.2233 46.1399 21.8738 44.1132 21.87C43.7763 21.8685 43.4394 21.87 43.1025 21.8782Z" fill="#2B679B"/>
<path d="M63.0204 2.09235C67.4232 2.10203 72.4171 2.10278 76.3405 2.08789V2.12511C76.3555 4.14114 74.7205 5.7827 72.6973 5.78418C71.7895 5.78493 70.8823 5.78567 69.9745 5.78567C69.9529 9.93387 69.9721 14.0835 69.9661 18.2325C69.9631 20.2329 68.3442 21.8587 66.3372 21.8714C65.9988 21.8737 65.6605 21.8766 65.3221 21.8796C65.2939 16.5082 65.3478 11.1376 65.2938 5.76632C63.9078 5.79162 60.7416 5.78865 59.3589 5.77599L59.3596 5.69783C59.3798 3.69743 61.0134 2.08789 63.0204 2.09235Z" fill="#2B679B"/>
</g>
<defs>
<linearGradient id="paint0_linear_246_3307" x1="108.579" y1="9.61789" x2="99.8284" y2="22.012" gradientUnits="userSpaceOnUse">
<stop stop-color="#267567"/>
<stop offset="0.0703653" stop-color="#329281"/>
<stop offset="0.1482" stop-color="#48B8A4"/>
<stop offset="0.250633" stop-color="#4DCCB5"/>
<stop offset="0.34412" stop-color="#52D4BD"/>
<stop offset="0.534338" stop-color="#52D4BD"/>
<stop offset="1" stop-color="#52D4BD"/>
</linearGradient>
<clipPath id="clip0_246_3307">
<rect width="120" height="24" fill="white"/>
</clipPath>
</defs>
</svg>
