<svg width="15" height="16" viewBox="0 0 15 16" fill="none" xmlns="http://www.w3.org/2000/svg">
<g clip-path="url(#clip0_1301_821)">
<path d="M11.8444 0.80072H3.11696C2.29059 0.80171 1.49836 1.13042 0.914028 1.71475C0.3297 2.29908 0.000989856 3.09131 0 3.91768L0 11.3984C0.000989856 12.2247 0.3297 13.017 0.914028 13.6013C1.49836 14.1856 2.29059 14.5143 3.11696 14.5153H11.8444C12.6708 14.5143 13.463 14.1856 14.0474 13.6013C14.6317 13.017 14.9604 12.2247 14.9614 11.3984V3.91768C14.9604 3.09131 14.6317 2.29908 14.0474 1.71475C13.463 1.13042 12.6708 0.80171 11.8444 0.80072ZM3.11696 2.0475H11.8444C12.2177 2.04824 12.5822 2.16066 12.8911 2.3703C13.1999 2.57994 13.439 2.8772 13.5775 3.22384L8.80353 7.9984C8.4522 8.34832 7.97655 8.54478 7.48069 8.54478C6.98484 8.54478 6.50918 8.34832 6.15786 7.9984L1.38393 3.22384C1.52241 2.8772 1.76146 2.57994 2.07031 2.3703C2.37916 2.16066 2.74368 2.04824 3.11696 2.0475ZM11.8444 13.2685H3.11696C2.62095 13.2685 2.14527 13.0715 1.79454 12.7208C1.44382 12.3701 1.24678 11.8944 1.24678 11.3984V4.85276L5.27638 8.87987C5.86151 9.46353 6.65424 9.7913 7.48069 9.7913C8.30715 9.7913 9.09987 9.46353 9.685 8.87987L13.7146 4.85276V11.3984C13.7146 11.8944 13.5176 12.3701 13.1668 12.7208C12.8161 13.0715 12.3404 13.2685 11.8444 13.2685Z" fill="#4DCCB5"/>
</g>
<defs>
<clipPath id="clip0_1301_821">
<rect width="14.9614" height="14.9614" fill="white" transform="translate(0 0.177734)"/>
</clipPath>
</defs>
</svg>
