<svg width="27" height="26" viewBox="0 0 27 26" fill="none" xmlns="http://www.w3.org/2000/svg">
<path fill-rule="evenodd" clip-rule="evenodd" d="M8.41505 1.61239C8.18406 0.804404 8.79073 0 9.63109 0C10.0468 0 10.4359 0.204247 10.672 0.54635L17.5689 10.5395L24.562 10.8718C25.6961 10.9257 26.5879 11.8609 26.5879 12.9963C26.5879 14.1709 25.6357 15.1231 24.461 15.1231L17.5689 15.1231L10.6709 25.4378C10.436 25.7891 10.0412 26 9.61854 26C8.78164 26 8.17502 25.2025 8.39844 24.396L10.9671 15.1231L4.03725 15.1231L2.18987 18.9112C2.04848 19.2012 1.75414 19.3851 1.43156 19.3851C0.965616 19.3851 0.587891 19.0074 0.587891 18.5414L0.587891 6.93832C0.587891 6.523 0.919899 6.18387 1.33513 6.17505C1.62831 6.16883 1.89914 6.33108 2.03196 6.59252L4.03725 10.5395L10.9671 10.5395L8.41505 1.61239Z" fill="#C6C6C6"/>
</svg>
