<svg width="12" height="11" viewBox="0 0 12 11" fill="none" xmlns="http://www.w3.org/2000/svg">
<path d="M4.9334 0.52576C5.16117 -0.175254 6.15292 -0.175253 6.38069 0.525761L7.19452 3.03045C7.29638 3.34395 7.58853 3.55621 7.91816 3.55621H10.5517C11.2888 3.55621 11.5953 4.49942 10.999 4.93267L8.86837 6.48065C8.60169 6.67441 8.4901 7.01784 8.59196 7.33135L9.40579 9.83604C9.63356 10.537 8.83122 11.12 8.2349 10.6867L6.10428 9.13875C5.8376 8.945 5.47649 8.945 5.20981 9.13875L3.07919 10.6867C2.48288 11.12 1.68053 10.537 1.90831 9.83603L2.72213 7.33135C2.82399 7.01784 2.7124 6.67441 2.44572 6.48065L0.315108 4.93267C-0.28121 4.49942 0.0252566 3.55621 0.762346 3.55621H3.39593C3.72557 3.55621 4.01771 3.34395 4.11958 3.03045L4.9334 0.52576Z" fill="#FFC107"/>
</svg>
