<svg width="13" height="11" viewBox="0 0 13 11" fill="none" xmlns="http://www.w3.org/2000/svg">
<path d="M6.34496 0.680269C6.42306 0.439911 6.7631 0.43991 6.8412 0.680269L7.65502 3.18496C7.82382 3.70447 8.30795 4.05621 8.8542 4.05621H11.4878C11.7405 4.05621 11.8456 4.37961 11.6411 4.52816L9.51051 6.07614C9.06859 6.39722 8.88367 6.96634 9.05247 7.48586L9.86629 9.99054C9.94439 10.2309 9.66929 10.4308 9.46483 10.2822L7.33421 8.73424C6.89229 8.41317 6.29388 8.41317 5.85195 8.73424L3.72134 10.2822C3.51688 10.4308 3.24177 10.2309 3.31987 9.99054L4.13369 7.48586C4.30249 6.96634 4.11757 6.39722 3.67565 6.07614L1.54504 4.52816C1.34057 4.37961 1.44565 4.05621 1.69838 4.05621H4.33197C4.87822 4.05621 5.36234 3.70447 5.53114 3.18496L6.34496 0.680269Z" stroke="#FFC107"/>
</svg>
