<svg width="31" height="30" viewBox="0 0 31 30" fill="none" xmlns="http://www.w3.org/2000/svg">
<rect x="0.724121" width="29.966" height="29.966" rx="5" fill="white" fill-opacity="0.06"/>
<g clip-path="url(#clip0_1301_832)">
<path d="M23.1563 11.7009C23.1667 11.8577 23.1667 12.0153 23.1667 12.1736C23.1667 17.0096 19.4849 22.5859 12.7545 22.5859V22.5829C10.7664 22.5859 8.8192 22.0166 7.14551 20.9426C7.43461 20.9776 7.72521 20.9947 8.01654 20.9954C9.66497 20.9969 11.2658 20.4439 12.5612 19.4258C10.9953 19.396 9.62186 18.3749 9.14249 16.884C9.69098 16.9895 10.2558 16.968 10.7946 16.8216C9.08675 16.4767 7.85898 14.9762 7.85898 13.2341C7.85898 13.2185 7.85898 13.2029 7.85898 13.188C8.36808 13.472 8.93737 13.6288 9.52004 13.6459C7.91175 12.5719 7.41529 10.433 8.38666 8.76079C10.2447 11.0469 12.9863 12.4367 15.9287 12.5846C15.6336 11.3137 16.0372 9.98187 16.987 9.0878C18.4608 7.70172 20.7788 7.77307 22.1649 9.24684C22.9847 9.08557 23.7702 8.78457 24.4889 8.35872C24.2154 9.20597 23.6439 9.92539 22.8799 10.3832C23.606 10.2962 24.3142 10.1023 24.9824 9.80648C24.4911 10.5415 23.8728 11.1829 23.1563 11.7009Z" fill="white"/>
</g>
<defs>
<clipPath id="clip0_1301_832">
<rect width="17.8369" height="17.8369" fill="white" transform="translate(7.14551 6.42169)"/>
</clipPath>
</defs>
</svg>
