<svg width="107" height="31" viewBox="0 0 107 31" fill="none" xmlns="http://www.w3.org/2000/svg">
<path d="M102.866 0.620975C104.693 0.620975 106.18 2.08088 106.18 3.87501V27.125C106.18 28.9191 104.693 30.379 102.866 30.379H4.19676C2.36941 30.379 0.882468 28.9191 0.882468 27.125V3.87501C0.882468 2.08088 2.36941 0.620975 4.19676 0.620975H102.866ZM102.866 7.62939e-06H4.19676C2.02703 7.62939e-06 0.25 1.74473 0.25 3.87501V27.125C0.25 29.2553 2.02703 31 4.19676 31H102.866C105.035 31 106.812 29.2553 106.812 27.125V3.87501C106.812 1.74473 105.035 7.62939e-06 102.866 7.62939e-06Z" fill="white"/>
<path d="M24.0314 15.3326C24.0086 12.8348 26.1145 11.6196 26.2108 11.563C25.0181 9.85567 23.1695 9.6224 22.5198 9.6038C20.9672 9.44337 19.4611 10.516 18.6702 10.516C17.8635 10.516 16.6455 9.6193 15.3328 9.64565C13.6436 9.67122 12.0633 10.6314 11.1966 12.1225C9.40791 15.1629 10.7419 19.6307 12.4556 22.0883C13.3128 23.2918 14.3145 24.6357 15.6256 24.5884C16.9083 24.5365 17.3875 23.7855 18.9354 23.7855C20.4691 23.7855 20.919 24.5884 22.2562 24.5582C23.6328 24.5365 24.4995 23.3492 25.3268 22.1348C26.3174 20.7553 26.7152 19.3967 26.731 19.3269C26.6987 19.3161 24.0575 18.3264 24.0314 15.3326Z" fill="white"/>
<path d="M21.5055 7.98715C22.1954 7.14008 22.6674 5.98765 22.5364 4.81818C21.5379 4.86158 20.2891 5.4963 19.57 6.32478C18.9338 7.05483 18.3655 8.25143 18.5123 9.37672C19.634 9.45887 20.7856 8.82105 21.5055 7.98715Z" fill="white"/>
<path d="M38.9676 7.75693C38.9676 8.6691 38.6889 9.35575 38.1324 9.81688C37.617 10.2424 36.8845 10.4555 35.9357 10.4555C35.4652 10.4555 35.0626 10.4353 34.7256 10.395V5.411C35.1653 5.34125 35.6389 5.3056 36.1504 5.3056C37.0542 5.3056 37.7354 5.49858 38.1948 5.88453C38.7094 6.32085 38.9676 6.94473 38.9676 7.75693ZM38.0953 7.7794C38.0953 7.18808 37.9359 6.7347 37.617 6.4185C37.2981 6.10308 36.8324 5.94498 36.219 5.94498C35.9586 5.94498 35.7367 5.96203 35.5528 5.99768V9.78665C35.6547 9.80215 35.8409 9.80913 36.1117 9.80913C36.7448 9.80913 37.2334 9.6363 37.5775 9.29065C37.9217 8.945 38.0953 8.44125 38.0953 7.7794Z" fill="white"/>
<path d="M43.5922 8.55365C43.5922 9.11552 43.4288 9.57587 43.102 9.93702C42.7594 10.3082 42.3055 10.4935 41.7388 10.4935C41.1926 10.4935 40.7576 10.316 40.4332 9.9595C40.1096 9.60377 39.9478 9.15505 39.9478 8.6141C39.9478 8.04835 40.1143 7.58412 40.449 7.22375C40.7837 6.86338 41.2336 6.6828 41.8004 6.6828C42.3466 6.6828 42.7855 6.86028 43.1178 7.216C43.4335 7.56165 43.5922 8.00805 43.5922 8.55365ZM42.7342 8.58C42.7342 8.24287 42.66 7.9538 42.5124 7.71277C42.3387 7.42137 42.0916 7.27567 41.7704 7.27567C41.4381 7.27567 41.1855 7.42137 41.0118 7.71277C40.8634 7.9538 40.79 8.24752 40.79 8.59472C40.79 8.93185 40.8642 9.22092 41.0118 9.46195C41.191 9.75335 41.4404 9.89905 41.7625 9.89905C42.0782 9.89905 42.3261 9.75102 42.5045 9.4542C42.6576 9.20852 42.7342 8.91712 42.7342 8.58Z" fill="white"/>
<path d="M49.7936 6.7572L48.6293 10.4106H47.8715L47.3892 8.82413C47.2669 8.4281 47.1674 8.0344 47.0901 7.6438H47.0751C47.0033 8.04525 46.9038 8.43818 46.7759 8.82413L46.2636 10.4106H45.4972L44.4023 6.7572H45.2525L45.6732 8.49398C45.775 8.90473 45.8587 9.2961 45.9258 9.66655H45.9408C46.0024 9.3612 46.1042 8.97215 46.2478 8.50173L46.7759 6.75798H47.45L47.956 8.46453C48.0784 8.8807 48.1778 9.28138 48.2544 9.66733H48.2773C48.3333 9.29145 48.4178 8.89078 48.5299 8.46453L48.9814 6.75798H49.7936V6.7572Z" fill="white"/>
<path d="M54.0819 10.4106H53.2547V8.31806C53.2547 7.67326 53.0052 7.35086 52.5048 7.35086C52.2593 7.35086 52.0612 7.43921 51.9072 7.61668C51.7549 7.79416 51.6775 8.00341 51.6775 8.24288V10.4098H50.8503V7.80113C50.8503 7.48028 50.84 7.13231 50.8203 6.75566H51.5473L51.586 7.32683H51.6089C51.7052 7.14936 51.8488 7.00288 52.0375 6.88586C52.2617 6.74946 52.5127 6.68048 52.7874 6.68048C53.1347 6.68048 53.4236 6.79053 53.6533 7.01141C53.939 7.28188 54.0819 7.68566 54.0819 8.22196V10.4106Z" fill="white"/>
<path d="M56.3631 10.4105H55.5366V5.08087H56.3631V10.4105Z" fill="white"/>
<path d="M61.2338 8.55365C61.2338 9.11552 61.0704 9.57587 60.7436 9.93702C60.401 10.3082 59.9464 10.4935 59.3804 10.4935C58.8334 10.4935 58.3984 10.316 58.0748 9.9595C57.7512 9.60377 57.5894 9.15505 57.5894 8.6141C57.5894 8.04835 57.7559 7.58412 58.0906 7.22375C58.4253 6.86338 58.8752 6.6828 59.4412 6.6828C59.9882 6.6828 60.4263 6.86028 60.7594 7.216C61.0751 7.56165 61.2338 8.00805 61.2338 8.55365ZM60.375 8.58C60.375 8.24287 60.3008 7.9538 60.1532 7.71277C59.9803 7.42137 59.7324 7.27567 59.412 7.27567C59.0789 7.27567 58.8263 7.42137 58.6534 7.71277C58.505 7.9538 58.4316 8.24752 58.4316 8.59472C58.4316 8.93185 58.5058 9.22092 58.6534 9.46195C58.8326 9.75335 59.082 9.89905 59.4041 9.89905C59.7198 9.89905 59.9669 9.75102 60.1453 9.4542C60.2992 9.20852 60.375 8.91712 60.375 8.58Z" fill="white"/>
<path d="M65.2374 10.4105H64.4946L64.4331 9.98972H64.4102C64.156 10.3253 63.7937 10.4935 63.3232 10.4935C62.972 10.4935 62.6878 10.3826 62.4739 10.1625C62.2797 9.9626 62.1826 9.71382 62.1826 9.41855C62.1826 8.97215 62.3721 8.63192 62.7533 8.39632C63.1338 8.16072 63.669 8.04525 64.3581 8.05067V7.98247C64.3581 7.5012 64.1007 7.26095 63.5853 7.26095C63.2182 7.26095 62.8946 7.35163 62.6152 7.53143L62.447 6.99822C62.7928 6.7882 63.2198 6.6828 63.7234 6.6828C64.6959 6.6828 65.1837 7.18655 65.1837 8.19405V9.53945C65.1837 9.90447 65.2019 10.1951 65.2374 10.4105ZM64.3786 9.15505V8.59162C63.4661 8.57612 63.0099 8.8218 63.0099 9.32787C63.0099 9.51852 63.062 9.66112 63.1685 9.75645C63.2751 9.85177 63.4108 9.89905 63.5727 9.89905C63.7542 9.89905 63.9239 9.84247 64.0786 9.7301C64.2341 9.61695 64.3297 9.47357 64.3652 9.29765C64.3739 9.25812 64.3786 9.21007 64.3786 9.15505Z" fill="white"/>
<path d="M69.9378 10.4105H69.2037L69.165 9.82387H69.1422C68.9077 10.2703 68.5083 10.4935 67.9471 10.4935C67.4987 10.4935 67.1254 10.3206 66.8294 9.975C66.5333 9.62935 66.3857 9.18062 66.3857 8.6296C66.3857 8.03827 66.546 7.55932 66.868 7.19352C67.1798 6.85252 67.5619 6.68202 68.0165 6.68202C68.5162 6.68202 68.8659 6.8471 69.0648 7.17802H69.0806V5.08087H69.9086V9.4263C69.9086 9.78202 69.9181 10.1098 69.9378 10.4105ZM69.0806 8.86985V8.2607C69.0806 8.1553 69.0727 8.07005 69.0577 8.00495C69.0111 7.80965 68.9109 7.64535 68.7585 7.51282C68.6046 7.3803 68.4191 7.31365 68.2052 7.31365C67.8966 7.31365 67.655 7.43377 67.4774 7.6748C67.3014 7.91582 67.2122 8.2235 67.2122 8.59937C67.2122 8.96052 67.2966 9.25347 67.4664 9.479C67.6455 9.71925 67.8871 9.83937 68.1894 9.83937C68.4609 9.83937 68.678 9.7394 68.843 9.53867C69.0024 9.35345 69.0806 9.13025 69.0806 8.86985Z" fill="white"/>
<path d="M77.0126 8.55365C77.0126 9.11552 76.8492 9.57587 76.5224 9.93702C76.1798 10.3082 75.7268 10.4935 75.1592 10.4935C74.6138 10.4935 74.1788 10.316 73.8536 9.9595C73.53 9.60377 73.3682 9.15505 73.3682 8.6141C73.3682 8.04835 73.5347 7.58412 73.8694 7.22375C74.2041 6.86338 74.654 6.6828 75.2216 6.6828C75.767 6.6828 76.2067 6.86028 76.5382 7.216C76.8539 7.56165 77.0126 8.00805 77.0126 8.55365ZM76.1554 8.58C76.1554 8.24287 76.0812 7.9538 75.9336 7.71277C75.7591 7.42137 75.5128 7.27567 75.1908 7.27567C74.8593 7.27567 74.6067 7.42137 74.4322 7.71277C74.2838 7.9538 74.2104 8.24752 74.2104 8.59472C74.2104 8.93185 74.2846 9.22092 74.4322 9.46195C74.6114 9.75335 74.8608 9.89905 75.1829 9.89905C75.4986 9.89905 75.7473 9.75102 75.9257 9.4542C76.078 9.20852 76.1554 8.91712 76.1554 8.58Z" fill="white"/>
<path d="M81.4605 10.4106H80.6341V8.31806C80.6341 7.67326 80.3846 7.35086 79.8834 7.35086C79.6379 7.35086 79.4398 7.43921 79.2866 7.61668C79.1335 7.79416 79.0569 8.00341 79.0569 8.24288V10.4098H78.2289V7.80113C78.2289 7.48028 78.2194 7.13231 78.1997 6.75566H78.9259L78.9646 7.32683H78.9875C79.0846 7.14936 79.2282 7.00288 79.4161 6.88586C79.6411 6.74946 79.8913 6.68048 80.1668 6.68048C80.5133 6.68048 80.8022 6.79053 81.0319 7.01141C81.3184 7.28188 81.4605 7.68566 81.4605 8.22196V10.4106Z" fill="white"/>
<path d="M87.0279 7.36558H86.117V9.14032C86.117 9.59137 86.2788 9.8169 86.5993 9.8169C86.7477 9.8169 86.8709 9.8045 86.968 9.77892L86.9893 10.3951C86.8259 10.4555 86.6112 10.4857 86.3467 10.4857C86.0199 10.4857 85.7658 10.3881 85.5818 10.1928C85.3971 9.99748 85.3056 9.66887 85.3056 9.20775V7.36558H84.7617V6.7572H85.3056V6.0876L86.1162 5.84735V6.75643H87.0271V7.36558H87.0279Z" fill="white"/>
<path d="M91.4074 10.4105H90.5794V8.33355C90.5794 7.67867 90.3299 7.35085 89.8303 7.35085C89.4466 7.35085 89.1846 7.54072 89.0409 7.92047C89.0164 8.0003 89.0022 8.09795 89.0022 8.21265V10.4098H88.1758V5.08087H89.0022V7.28265H89.018C89.2785 6.88197 89.6519 6.68202 90.1358 6.68202C90.4783 6.68202 90.7617 6.79207 90.9867 7.01295C91.2669 7.28807 91.4074 7.69727 91.4074 8.23822V10.4105Z" fill="white"/>
<path d="M95.9249 8.41107C95.9249 8.55677 95.9138 8.67922 95.8941 8.77919H93.4132C93.4242 9.14034 93.5426 9.41547 93.7723 9.60612C93.9823 9.77662 94.253 9.86187 94.5846 9.86187C94.9516 9.86187 95.2863 9.80452 95.5878 9.68904L95.7173 10.2532C95.3644 10.4036 94.9492 10.4788 94.4685 10.4788C93.8923 10.4788 93.4384 10.3121 93.11 9.97889C92.7801 9.64564 92.6167 9.19847 92.6167 8.63737C92.6167 8.08634 92.769 7.62754 93.0761 7.26174C93.3966 6.87114 93.8299 6.67584 94.377 6.67584C94.9121 6.67584 95.3187 6.87114 95.5933 7.26174C95.8152 7.57174 95.9249 7.95537 95.9249 8.41107ZM95.1355 8.20104C95.1418 7.96002 95.0874 7.75232 94.9753 7.57717C94.8316 7.35164 94.613 7.23849 94.317 7.23849C94.047 7.23849 93.8268 7.34854 93.6586 7.56942C93.5213 7.74534 93.44 7.95537 93.4132 8.20104H95.1355Z" fill="white"/>
<path d="M42.5949 24.4156H40.8023L39.8204 21.3861H36.4072L35.4718 24.4156H33.7266L37.1081 14.1019H39.1968L42.5949 24.4156ZM39.5244 20.1151L38.6363 17.422C38.5424 17.1468 38.3664 16.4989 38.1067 15.479H38.0751C37.9717 15.9177 37.8051 16.5656 37.5762 17.422L36.704 20.1151H39.5244Z" fill="white"/>
<path d="M51.291 20.6057C51.291 21.8705 50.9429 22.8702 50.2467 23.6041C49.6231 24.2575 48.8487 24.5837 47.9244 24.5837C46.9267 24.5837 46.2099 24.2319 45.7734 23.5282H45.7418V27.4458H44.0589V19.4269C44.0589 18.6317 44.0376 17.8157 43.9966 16.9787H45.4766L45.5705 18.1574H45.6021C46.1634 17.2693 47.0151 16.826 48.158 16.826C49.0516 16.826 49.7975 17.1724 50.3943 17.866C50.9926 18.5604 51.291 19.4734 51.291 20.6057ZM49.5765 20.6661C49.5765 19.9423 49.4107 19.3455 49.0776 18.8759C48.7137 18.3861 48.2251 18.1412 47.6126 18.1412C47.1974 18.1412 46.8201 18.2776 46.483 18.5465C46.1452 18.8177 45.9242 19.1719 45.8208 19.6106C45.7687 19.8152 45.7426 19.9826 45.7426 20.1143V21.3543C45.7426 21.8953 45.9115 22.3517 46.2494 22.7245C46.5872 23.0973 47.0261 23.2833 47.566 23.2833C48.1999 23.2833 48.6932 23.043 49.0461 22.5641C49.3997 22.0844 49.5765 21.452 49.5765 20.6661Z" fill="white"/>
<path d="M60.0031 20.6057C60.0031 21.8705 59.655 22.8702 58.958 23.6041C58.3352 24.2575 57.5608 24.5837 56.6365 24.5837C55.6388 24.5837 54.922 24.2319 54.4863 23.5282H54.4547V27.4458H52.7718V19.4269C52.7718 18.6317 52.7505 17.8157 52.7095 16.9787H54.1895L54.2834 18.1574H54.315C54.8755 17.2693 55.7272 16.826 56.8709 16.826C57.7637 16.826 58.5096 17.1724 59.108 17.866C59.7039 18.5604 60.0031 19.4734 60.0031 20.6057ZM58.2886 20.6661C58.2886 19.9423 58.1221 19.3455 57.7889 18.8759C57.4251 18.3861 56.938 18.1412 56.3247 18.1412C55.9087 18.1412 55.5322 18.2776 55.1944 18.5465C54.8565 18.8177 54.6363 19.1719 54.5329 19.6106C54.4816 19.8152 54.4547 19.9826 54.4547 20.1143V21.3543C54.4547 21.8953 54.6236 22.3517 54.9599 22.7245C55.2978 23.0965 55.7366 23.2833 56.2781 23.2833C56.912 23.2833 57.4053 23.043 57.7582 22.5641C58.1118 22.0844 58.2886 21.452 58.2886 20.6661Z" fill="white"/>
<path d="M69.7439 21.5233C69.7439 22.4006 69.4337 23.1143 68.8109 23.6654C68.1266 24.2675 67.1738 24.5682 65.9495 24.5682C64.8192 24.5682 63.913 24.3543 63.2271 23.9258L63.617 22.5486C64.3558 22.9872 65.1665 23.2073 66.0498 23.2073C66.6836 23.2073 67.177 23.0663 67.5314 22.7857C67.8842 22.5052 68.0603 22.1285 68.0603 21.6589C68.0603 21.2404 67.915 20.8878 67.6237 20.6018C67.334 20.3158 66.8502 20.05 66.1745 19.8043C64.3353 19.1308 63.4165 18.1443 63.4165 16.8469C63.4165 15.9991 63.7386 15.3039 64.3835 14.7629C65.026 14.2212 65.8832 13.9507 66.9552 13.9507C67.9111 13.9507 68.7052 14.1143 69.339 14.4405L68.9183 15.7875C68.3263 15.4713 67.6569 15.3132 66.9078 15.3132C66.3158 15.3132 65.8532 15.4566 65.5217 15.7418C65.2415 15.9967 65.101 16.3075 65.101 16.6756C65.101 17.0833 65.2612 17.4204 65.5833 17.6855C65.8635 17.9304 66.3726 18.1954 67.1115 18.4814C68.0153 18.8387 68.6791 19.2564 69.1061 19.7353C69.5316 20.2127 69.7439 20.8103 69.7439 21.5233Z" fill="white"/>
<path d="M75.3083 18.2186H73.4533V21.8294C73.4533 22.7477 73.7801 23.2065 74.4353 23.2065C74.736 23.2065 74.9854 23.181 75.1828 23.1298L75.2293 24.3845C74.8978 24.5062 74.4613 24.5674 73.9206 24.5674C73.256 24.5674 72.7366 24.3683 72.3616 23.9707C71.9883 23.5723 71.8004 22.9043 71.8004 21.9658V18.2171H70.6953V16.9771H71.8004V15.6154L73.4533 15.1256V16.9771H75.3083V18.2186Z" fill="white"/>
<path d="M83.6774 20.6359C83.6774 21.779 83.3443 22.7176 82.6797 23.4515C81.9827 24.2071 81.0576 24.5838 79.9043 24.5838C78.7929 24.5838 77.908 24.2218 77.2481 23.498C76.5882 22.7741 76.2583 21.8604 76.2583 20.7591C76.2583 19.6067 76.5977 18.6628 77.2789 17.9288C77.9586 17.1941 78.8758 16.8268 80.029 16.8268C81.1404 16.8268 82.0348 17.1887 82.7097 17.9133C83.3554 18.6163 83.6774 19.5238 83.6774 20.6359ZM81.9314 20.6894C81.9314 20.0035 81.7822 19.4153 81.4799 18.9247C81.127 18.3311 80.6226 18.035 79.969 18.035C79.2926 18.035 78.7787 18.3318 78.4259 18.9247C78.1235 19.4161 77.9744 20.0136 77.9744 20.7204C77.9744 21.4063 78.1235 21.9945 78.4259 22.4843C78.7898 23.0779 79.2981 23.374 79.954 23.374C80.5966 23.374 81.101 23.0717 81.4649 22.4688C81.7751 21.9689 81.9314 21.3745 81.9314 20.6894Z" fill="white"/>
<path d="M89.1478 18.4318C88.9812 18.4016 88.8036 18.3861 88.6173 18.3861C88.0253 18.3861 87.5675 18.6054 87.2454 19.0448C86.9652 19.4323 86.8247 19.9221 86.8247 20.5134V24.4156H85.1426L85.1584 19.3207C85.1584 18.4636 85.1371 17.6831 85.0952 16.9794H86.561L86.6226 18.4023H86.6692C86.8468 17.9133 87.127 17.5196 87.5106 17.2243C87.8856 16.9585 88.2905 16.826 88.727 16.826C88.8825 16.826 89.023 16.8368 89.1478 16.8562V18.4318Z" fill="white"/>
<path d="M96.674 20.3452C96.674 20.6413 96.6542 20.8908 96.6124 21.0947H91.5637C91.5834 21.8294 91.8274 22.3912 92.2962 22.7787C92.7217 23.1252 93.2719 23.2988 93.9476 23.2988C94.6951 23.2988 95.3771 23.1817 95.9904 22.9469L96.254 24.0939C95.5373 24.4008 94.6911 24.5535 93.7147 24.5535C92.5401 24.5535 91.6182 24.214 90.9472 23.5359C90.2779 22.8578 89.9424 21.9472 89.9424 20.8048C89.9424 19.6834 90.2542 18.7495 90.8786 18.0047C91.5321 17.2096 92.4154 16.812 93.5268 16.812C94.6185 16.812 95.4449 17.2096 96.0062 18.0047C96.4506 18.6364 96.674 19.4176 96.674 20.3452ZM95.0692 19.9167C95.0803 19.4269 94.9705 19.0037 94.7424 18.6464C94.4512 18.1869 94.0036 17.9575 93.4013 17.9575C92.8511 17.9575 92.4036 18.1814 92.0618 18.6309C91.7816 18.9882 91.615 19.4168 91.5637 19.9159H95.0692V19.9167Z" fill="white"/>
</svg>
