<svg width="107" height="31" viewBox="0 0 107 31" fill="none" xmlns="http://www.w3.org/2000/svg">
<path d="M102.616 0.620976C104.443 0.620976 105.93 2.08088 105.93 3.87501V27.125C105.93 28.9191 104.443 30.379 102.616 30.379H3.94676C2.11941 30.379 0.632468 28.9191 0.632468 27.125V3.87501C0.632468 2.08088 2.11941 0.620976 3.94676 0.620976H102.616ZM102.616 8.10623e-06H3.94676C1.77703 8.10623e-06 0 1.74473 0 3.87501V27.125C0 29.2553 1.77703 31 3.94676 31H102.616C104.785 31 106.562 29.2553 106.562 27.125V3.87501C106.562 1.74473 104.785 8.10623e-06 102.616 8.10623e-06Z" fill="white"/>
<path d="M7.64487 5.84253C7.413 6.08084 7.27881 6.45187 7.27881 6.93237V24.0715C7.27881 24.552 7.413 24.923 7.64487 25.1613L7.7021 25.2137L17.4841 15.6133V15.3867L7.7021 5.78634L7.64487 5.84253Z" fill="white"/>
<path d="M21.925 18.8151L18.668 15.6133V15.3867L21.929 12.1849L22.002 12.2266L25.8639 14.384C26.966 14.9963 26.966 16.0038 25.8639 16.6199L22.002 18.7734L21.925 18.8151Z" fill="white"/>
<path d="M21.4101 19.3695L18.0761 16.0961L8.23682 25.7575C8.60288 26.1353 9.19982 26.1808 9.87867 25.803L21.4101 19.3695Z" fill="white"/>
<path d="M21.4101 11.6304L9.87867 5.19694C9.19982 4.823 8.60288 4.86853 8.23682 5.24634L18.0761 14.9038L21.4101 11.6304Z" fill="white"/>
<path d="M37.429 7.9389C37.429 8.58603 37.2317 9.10431 36.8429 9.49084C36.396 9.94906 35.8138 10.1796 35.1004 10.1796C34.4186 10.1796 33.8365 9.94518 33.3589 9.48309C32.8804 9.01422 32.6416 8.43878 32.6416 7.75C32.6416 7.06122 32.8804 6.48578 33.3589 6.02078C33.8365 5.55481 34.4186 5.32037 35.1004 5.32037C35.4399 5.32037 35.7635 5.38915 36.0723 5.51703C36.3802 5.64587 36.6308 5.82025 36.8123 6.03531L36.3999 6.44412C36.0832 6.07697 35.652 5.89581 35.1004 5.89581C34.6031 5.89581 34.172 6.06631 33.8059 6.41022C33.4438 6.75509 33.2622 7.20169 33.2622 7.75C33.2622 8.29831 33.4438 8.74878 33.8059 9.09365C34.172 9.43368 34.6031 9.60806 35.1004 9.60806C35.6283 9.60806 36.0723 9.43368 36.4226 9.08978C36.6535 8.86212 36.7847 8.54825 36.8192 8.14718H35.1004V7.58725H37.3935C37.4211 7.70834 37.429 7.82556 37.429 7.9389Z" fill="white" stroke="white" stroke-width="0.16" stroke-miterlimit="10"/>
<path d="M41.0669 5.99753H38.913V7.47003H40.8548V8.02997H38.913V9.50247H41.0669V10.0731H38.3032V5.42694H41.0669V5.99753Z" fill="white" stroke="white" stroke-width="0.16" stroke-miterlimit="10"/>
<path d="M43.6341 10.0731H43.0243V5.99753H41.7031V5.42694H44.9562V5.99753H43.6341V10.0731Z" fill="white" stroke="white" stroke-width="0.16" stroke-miterlimit="10"/>
<path d="M47.3105 10.0731V5.42694H47.9193V10.0731H47.3105Z" fill="white" stroke="white" stroke-width="0.16" stroke-miterlimit="10"/>
<path d="M50.618 10.0731H50.0131V5.99753H48.687V5.42694H51.9441V5.99753H50.618V10.0731Z" fill="white" stroke="white" stroke-width="0.16" stroke-miterlimit="10"/>
<path d="M58.1034 9.47534C57.6367 9.94518 57.0584 10.1796 56.3688 10.1796C55.6751 10.1796 55.0969 9.94518 54.6302 9.47534C54.1645 9.00647 53.9326 8.43103 53.9326 7.75C53.9326 7.06897 54.1645 6.49353 54.6302 6.02465C55.0969 5.55481 55.6751 5.32037 56.3688 5.32037C57.0545 5.32037 57.6327 5.55481 58.0994 6.02853C58.5691 6.50128 58.8009 7.07284 58.8009 7.75C58.8009 8.43103 58.5691 9.00647 58.1034 9.47534ZM55.0811 9.0859C55.4324 9.43368 55.8596 9.60806 56.3688 9.60806C56.8739 9.60806 57.3051 9.43368 57.6524 9.0859C58.0027 8.73812 58.1803 8.29153 58.1803 7.75C58.1803 7.20847 58.0027 6.76187 57.6524 6.41409C57.3051 6.06631 56.8739 5.89194 56.3688 5.89194C55.8596 5.89194 55.4324 6.06631 55.0811 6.41409C54.7309 6.76187 54.5532 7.20847 54.5532 7.75C54.5532 8.29153 54.7309 8.73812 55.0811 9.0859Z" fill="white" stroke="white" stroke-width="0.16" stroke-miterlimit="10"/>
<path d="M59.6562 10.0731V5.42694H60.3963L62.6972 9.04038H62.7239L62.6972 8.14719V5.42694H63.306V10.0731H62.6706L60.2611 6.28138H60.2344L60.2611 7.17844V10.0731H59.6562Z" fill="white" stroke="white" stroke-width="0.16" stroke-miterlimit="10"/>
<path d="M53.7825 16.8582C51.9285 16.8582 50.4139 18.2435 50.4139 20.1548C50.4139 22.0507 51.9285 23.4505 53.7825 23.4505C55.6404 23.4505 57.155 22.0507 57.155 20.1548C57.155 18.2435 55.6404 16.8582 53.7825 16.8582ZM53.7825 22.1524C52.7652 22.1524 51.89 21.328 51.89 20.1548C51.89 18.9662 52.7652 18.1563 53.7825 18.1563C54.7998 18.1563 55.6789 18.9662 55.6789 20.1548C55.6789 21.328 54.7998 22.1524 53.7825 22.1524ZM46.4326 16.8582C44.5747 16.8582 43.0641 18.2435 43.0641 20.1548C43.0641 22.0507 44.5747 23.4505 46.4326 23.4505C48.2896 23.4505 49.8012 22.0507 49.8012 20.1548C49.8012 18.2435 48.2896 16.8582 46.4326 16.8582ZM46.4326 22.1524C45.4144 22.1524 44.5362 21.328 44.5362 20.1548C44.5362 18.9662 45.4144 18.1563 46.4326 18.1563C47.4499 18.1563 48.3251 18.9662 48.3251 20.1548C48.3251 21.328 47.4499 22.1524 46.4326 22.1524ZM37.6866 17.8686V19.2694H41.0937C40.994 20.0522 40.7276 20.6276 40.3191 21.0287C39.8218 21.513 39.0473 22.0507 37.6866 22.0507C35.5899 22.0507 33.9481 20.3893 33.9481 18.3307C33.9481 16.2721 35.5899 14.6107 37.6866 14.6107C38.8203 14.6107 39.6452 15.0457 40.254 15.6095L41.2594 14.6223C40.4079 13.8241 39.2752 13.2109 37.6866 13.2109C34.8114 13.2109 32.395 15.5078 32.395 18.3307C32.395 21.1536 34.8114 23.4505 37.6866 23.4505C39.2407 23.4505 40.4079 22.9507 41.3255 22.0129C42.2659 21.0897 42.5589 19.7916 42.5589 18.7434C42.5589 18.4179 42.5313 18.1185 42.4819 17.8686H37.6866ZM73.4502 18.9546C73.1729 18.2173 72.3175 16.8582 70.575 16.8582C68.8483 16.8582 67.4106 18.1941 67.4106 20.1548C67.4106 22.0013 68.8335 23.4505 70.7407 23.4505C72.2829 23.4505 73.1729 22.5273 73.539 21.9897L72.3944 21.2408C72.0126 21.7891 71.4926 22.1524 70.7407 22.1524C69.9938 22.1524 69.458 21.8163 69.1147 21.1536L73.6051 19.3295L73.4502 18.9546ZM68.8719 20.0522C68.8335 18.7812 69.8774 18.1302 70.6253 18.1302C71.2114 18.1302 71.7087 18.4179 71.8744 18.8296L68.8719 20.0522ZM65.2222 23.25H66.6983V13.5625H65.2222V23.25ZM62.8048 17.5925H62.7554C62.4239 17.2069 61.7915 16.8582 60.9903 16.8582C59.3089 16.8582 57.7717 18.3074 57.7717 20.1655C57.7717 22.0129 59.3089 23.4505 60.9903 23.4505C61.7915 23.4505 62.4239 23.0989 62.7554 22.7017H62.8048V23.1744C62.8048 24.4348 62.119 25.1119 61.013 25.1119C60.1111 25.1119 59.5517 24.4726 59.3208 23.9349L58.0371 24.4609C58.4071 25.3348 59.3869 26.4101 61.013 26.4101C62.7436 26.4101 64.2039 25.4103 64.2039 22.9778V17.0587H62.8048V17.5925ZM61.1166 22.1524C60.0993 22.1524 59.2478 21.3164 59.2478 20.1655C59.2478 19.004 60.0993 18.1563 61.1166 18.1563C62.119 18.1563 62.9094 19.004 62.9094 20.1655C62.9094 21.3164 62.119 22.1524 61.1166 22.1524ZM80.3609 13.5625H76.8306V23.25H78.3027V19.5794H80.3609C81.9959 19.5794 83.5993 18.4179 83.5993 16.5705C83.5993 14.724 81.9919 13.5625 80.3609 13.5625ZM80.3994 18.2319H78.3027V14.91H80.3994C81.4986 14.91 82.1261 15.8061 82.1261 16.5705C82.1261 17.3203 81.4986 18.2319 80.3994 18.2319ZM89.4997 16.8398C88.436 16.8398 87.3299 17.3009 86.8751 18.3229L88.1814 18.8606C88.4627 18.3229 88.9797 18.1486 89.5263 18.1486C90.29 18.1486 91.0645 18.599 91.0764 19.3944V19.4961C90.81 19.345 90.2397 19.1212 89.5381 19.1212C88.1311 19.1212 86.6975 19.8817 86.6975 21.3009C86.6975 22.599 87.8499 23.435 89.1454 23.435C90.1361 23.435 90.6827 22.9962 91.0261 22.4857H91.0764V23.2345H92.4982V19.5184C92.4982 17.8008 91.1918 16.8398 89.4997 16.8398ZM89.3221 22.1485C88.8406 22.1485 88.1696 21.9141 88.1696 21.328C88.1696 20.5782 89.0063 20.2905 89.7305 20.2905C90.3788 20.2905 90.6827 20.4309 91.0764 20.616C90.9609 21.513 90.1746 22.1485 89.3221 22.1485ZM97.6783 17.0519L95.9862 21.2515H95.9358L94.1864 17.0519H92.5988L95.2274 22.9206L93.7276 26.1863H95.2659L99.3162 17.0519H97.6783ZM84.4083 23.25H85.8844V13.5625H84.4083V23.25Z" fill="white"/>
</svg>
