<svg width="106" height="40" viewBox="0 0 106 40" fill="none" xmlns="http://www.w3.org/2000/svg">
<path d="M100.664 16.06C99.4183 17.3251 98.1617 18.5796 96.9026 19.8316C96.6448 20.1046 96.3759 20.375 96.0849 20.6173C95.9197 20.7535 95.7392 20.8674 95.5482 20.9545H88.5815C89.7991 19.736 97.9839 11.5878 99.202 10.3726C99.5193 10.6921 99.9997 11.174 100.575 11.7587C101.638 12.8378 101.862 14.8342 100.664 16.06Z" fill="#B0D0EC"/>
<path d="M104.978 11.2269C104.867 11.5412 104.702 11.8346 104.488 12.0874C103.234 13.4296 101.955 14.751 100.665 16.0592C101.861 14.8329 101.637 12.8364 100.574 11.7573C99.9987 11.1726 99.5188 10.6907 99.2015 10.3712C99.2015 10.3712 99.2015 10.3712 99.2015 10.3685C97.9808 9.16046 90.0539 1.21594 88.8384 0H95.5477C95.633 0.0464899 95.7182 0.102801 95.7982 0.162386C95.976 0.296617 96.1518 0.438051 96.3144 0.592579C98.9748 3.26411 101.645 5.92774 104.316 8.58618C104.592 8.85664 104.805 9.18666 104.951 9.54478C105.167 10.0804 105.172 10.6835 104.978 11.2269Z" fill="white"/>
<path fill-rule="evenodd" clip-rule="evenodd" d="M77.9595 1.44666C80.582 1.47277 83.1824 2.43576 84.9914 4.37808C88.1154 7.57261 88.1091 13.2024 85.0361 16.4315C83.1808 18.4366 80.4778 19.4145 77.7769 19.3989C75.0739 19.4145 72.3709 18.4366 70.5177 16.4315C67.4448 13.2024 67.4374 7.57197 70.5624 4.37808C72.3683 2.43576 74.9708 1.47342 77.5938 1.44666H77.9595ZM81.1971 14.7047C82.3794 13.6934 83.1219 12.2329 83.1913 10.6816C83.2403 9.55474 82.9793 8.41481 82.4052 7.44727L82.3958 7.45643C81.6244 6.4301 80.6362 5.49192 79.3581 5.16284C78.8835 5.01855 78.3899 4.94282 77.8974 4.92715C77.8843 4.92715 77.8706 4.92694 77.8574 4.92672C77.8306 4.92628 77.8032 4.92585 77.7769 4.92715C77.7501 4.92585 77.7232 4.92628 77.6964 4.92672C77.6827 4.92694 77.6696 4.92715 77.6564 4.92715C77.1608 4.94282 76.6682 5.01855 76.1952 5.16284C74.9171 5.49124 73.9274 6.42942 73.1576 7.45643C73.1555 7.45516 73.1539 7.45353 73.1523 7.45195C73.1507 7.45011 73.1491 7.44832 73.1465 7.44727C72.1026 9.20351 72.0936 11.5369 73.1039 13.3154L73.1113 13.3243C73.608 13.9527 74.1126 14.5912 74.7919 15.0337C75.6706 15.6069 76.7214 15.8916 77.7759 15.8981C78.8288 15.8916 79.8817 15.6069 80.7599 15.0337C80.914 14.9339 81.0587 14.8222 81.1971 14.7047Z" fill="white"/>
<path fill-rule="evenodd" clip-rule="evenodd" d="M9.74387 1.44666C12.3662 1.47277 14.9669 2.43576 16.7757 4.37808C19.8998 7.57261 19.8933 13.2024 16.8202 16.4315C14.965 18.4366 12.262 19.4145 9.56107 19.3989C6.85812 19.4145 4.15522 18.4366 2.30195 16.4315C-0.771111 13.2024 -0.778315 7.57197 2.3465 4.37808C4.1526 2.43576 6.75531 1.47342 9.37833 1.44666H9.74387ZM12.9813 14.7047C14.1638 13.6934 14.906 12.2329 14.9754 10.6816C15.0246 9.55474 14.7639 8.41481 14.1893 7.44727L14.1802 7.45643C13.4085 6.4301 12.4206 5.49192 11.1425 5.16284C10.6675 5.01855 10.1742 4.94282 9.68162 4.92715C9.66831 4.92715 9.65494 4.92694 9.64158 4.92672C9.61469 4.92628 9.58775 4.92585 9.56107 4.92715C9.5344 4.92585 9.50745 4.92628 9.48062 4.92672C9.4672 4.92694 9.45384 4.92715 9.44052 4.92715C8.94528 4.94282 8.45267 5.01855 7.97968 5.16284C6.70158 5.49124 5.71173 6.42942 4.94199 7.45643C4.93984 7.45516 4.93827 7.45353 4.93674 7.45195C4.93499 7.45011 4.93329 7.44832 4.93085 7.44727C3.88663 9.20351 3.87811 11.5369 4.88827 13.3154L4.8953 13.3243C5.39223 13.9527 5.89705 14.5912 6.57646 15.0337C7.45492 15.6069 8.50571 15.8916 9.56044 15.8981C10.6132 15.8916 11.6659 15.6069 12.5444 15.0337C12.6983 14.9339 12.8431 14.8222 12.9813 14.7047Z" fill="white"/>
<path d="M21.9828 19.1218C21.9691 13.3354 21.9527 7.54827 21.9881 1.7644C26.0097 1.79182 30.0346 1.76701 34.0569 1.7755C34.0569 1.7879 34.0569 1.80096 34.0569 1.81337C34.0569 3.5781 32.6209 5.00594 30.8501 5.0079C29.2491 5.00921 27.6474 5.01508 26.0464 4.9968C26.0575 6.51084 26.0411 8.02809 26.0549 9.54213C28.7205 9.55586 31.3886 9.54734 34.0575 9.55065V9.59633C34.0575 11.3578 32.6268 12.7863 30.8594 12.7902C29.2602 12.7935 27.6618 12.7974 26.0634 12.7693C26.0457 13.8205 26.047 14.8709 26.0483 15.922C26.0503 17.6796 24.6255 19.1081 22.8619 19.1172C22.5685 19.1172 22.2756 19.1192 21.9828 19.1218Z" fill="white"/>
<path d="M37.7778 19.1221C37.7975 13.3383 37.7667 7.55115 37.7942 1.76731C41.8191 1.77841 45.8467 1.78689 49.8736 1.76208C49.8729 1.78886 49.8729 1.81562 49.8729 1.84239C49.8546 3.59472 48.4396 5.0193 46.6813 5.01995C45.0697 5.02061 43.4569 4.986 41.8466 5.00233C41.8631 6.51373 41.8604 8.02777 41.8552 9.53918C44.5293 9.55549 47.2027 9.55549 49.8795 9.53918C49.8788 9.57117 49.8788 9.60253 49.8782 9.63452C49.8526 11.3829 48.4324 12.7938 46.678 12.7931C45.0717 12.7931 43.4654 12.7788 41.8604 12.7905C41.8428 13.826 41.8591 14.8628 41.867 15.8995C41.8794 17.6708 40.4415 19.1182 38.6642 19.115C38.3687 19.1137 38.0733 19.115 37.7778 19.1221Z" fill="white"/>
<path d="M55.2453 1.77039C59.1064 1.77888 63.4858 1.77953 66.9265 1.76648V1.79912C66.9397 3.56712 65.5058 5.00672 63.7316 5.00803C62.9354 5.00868 62.1398 5.00933 61.3437 5.00933C61.3248 8.64718 61.3416 12.2863 61.3364 15.9248C61.3337 17.6791 59.9141 19.105 58.154 19.1161C57.8572 19.1181 57.5605 19.1206 57.2637 19.1233C57.239 14.4127 57.2863 9.70286 57.239 4.99236C56.0235 5.01455 53.2468 5.01194 52.0342 5.00084L52.0348 4.93229C52.0525 3.178 53.4852 1.76648 55.2453 1.77039Z" fill="white"/>
<path d="M8.267 28.576V29.616H5.355V37H4.159V29.616H1.234V28.576H8.267ZM11.027 31.15C11.1743 31.15 11.3086 31.1587 11.43 31.176C11.5513 31.1933 11.6813 31.2193 11.82 31.254L11.612 32.411C11.3173 32.307 11.0486 32.255 10.806 32.255C10.5286 32.255 10.273 32.3157 10.039 32.437C9.80496 32.5583 9.57963 32.788 9.36296 33.126V37H8.24496V31.293L9.36296 31.176V31.995C9.57963 31.7177 9.83096 31.5097 10.117 31.371C10.403 31.2237 10.7063 31.15 11.027 31.15ZM15.0661 31.15C15.7334 31.15 16.2318 31.3017 16.5611 31.605C16.8991 31.9083 17.0681 32.385 17.0681 33.035V37H16.0541L15.9891 36.506C15.3911 36.9393 14.7021 37.156 13.9221 37.156C13.5928 37.156 13.2981 37.0953 13.0381 36.974C12.7781 36.844 12.5744 36.6663 12.4271 36.441C12.2884 36.207 12.2191 35.9427 12.2191 35.648C12.2191 35.1713 12.3881 34.777 12.7261 34.465C13.0641 34.1443 13.5148 33.9103 14.0781 33.763C14.6414 33.6157 15.2654 33.5333 15.9501 33.516V33.23C15.9501 32.84 15.8721 32.5583 15.7161 32.385C15.5601 32.203 15.2958 32.112 14.9231 32.112C14.2904 32.112 13.6318 32.3373 12.9471 32.788L12.4531 32.008C13.2851 31.436 14.1561 31.15 15.0661 31.15ZM13.4151 35.531C13.4151 35.7563 13.4801 35.9253 13.6101 36.038C13.7488 36.1507 13.9524 36.207 14.2211 36.207C14.8104 36.207 15.3868 36.0337 15.9501 35.687V34.335C15.1961 34.3697 14.5851 34.4867 14.1171 34.686C13.6491 34.8853 13.4151 35.167 13.4151 35.531ZM23.5292 31.306V31.384L21.2542 37H20.2272L17.9002 31.384V31.306H19.1222L20.5002 34.972C20.5349 35.0587 20.6042 35.258 20.7082 35.57L20.7862 35.817C20.8729 35.5223 20.9639 35.2407 21.0592 34.972L22.3592 31.306H23.5292ZM29.009 34.348H25.044C25.0527 34.998 25.2087 35.4703 25.512 35.765C25.824 36.0597 26.2227 36.207 26.708 36.207C27.0547 36.207 27.3537 36.1637 27.605 36.077C27.865 35.9903 28.151 35.856 28.463 35.674L28.892 36.467C28.1813 36.9263 27.436 37.156 26.656 37.156C25.824 37.156 25.1567 36.9263 24.654 36.467C24.16 35.999 23.913 35.2623 23.913 34.257C23.913 33.685 24.017 33.165 24.225 32.697C24.433 32.229 24.7407 31.8563 25.148 31.579C25.564 31.293 26.071 31.15 26.669 31.15C27.1717 31.15 27.6007 31.254 27.956 31.462C28.3113 31.6613 28.58 31.9387 28.762 32.294C28.944 32.6493 29.035 33.0567 29.035 33.516L29.009 34.348ZM26.669 32.021C26.2183 32.021 25.863 32.1553 25.603 32.424C25.3517 32.6927 25.187 33.061 25.109 33.529H27.943V33.477C27.943 32.9917 27.8303 32.6277 27.605 32.385C27.3883 32.1423 27.0763 32.021 26.669 32.021ZM30.3983 37V28.056L31.5163 27.926V37H30.3983ZM37.8059 35.96H41.9399V37H36.6099V28.576H37.8059V35.96ZM43.6269 30.149C43.4882 30.149 43.3582 30.1143 43.2369 30.045C43.1156 29.967 43.0159 29.8673 42.9379 29.746C42.8686 29.6247 42.8339 29.4947 42.8339 29.356C42.8339 29.2087 42.8686 29.0743 42.9379 28.953C43.0159 28.8317 43.1156 28.7363 43.2369 28.667C43.3582 28.589 43.4882 28.55 43.6269 28.55C43.7742 28.55 43.9086 28.589 44.0299 28.667C44.1512 28.7363 44.2466 28.8317 44.3159 28.953C44.3939 29.0743 44.4329 29.2087 44.4329 29.356C44.4329 29.4947 44.3939 29.6247 44.3159 29.746C44.2466 29.8673 44.1512 29.967 44.0299 30.045C43.9086 30.1143 43.7742 30.149 43.6269 30.149ZM43.0809 37V31.306L44.1989 31.176V37H43.0809ZM48.4185 33.958L50.9015 36.922V37H49.5365L47.1315 34.023V37H46.0135V28.056L47.1315 27.926V33.932L49.5495 31.306H50.7845V31.384L48.4185 33.958ZM56.4182 34.348H52.4532C52.4619 34.998 52.6179 35.4703 52.9212 35.765C53.2332 36.0597 53.6319 36.207 54.1172 36.207C54.4639 36.207 54.7629 36.1637 55.0142 36.077C55.2742 35.9903 55.5602 35.856 55.8722 35.674L56.3012 36.467C55.5905 36.9263 54.8452 37.156 54.0652 37.156C53.2332 37.156 52.5659 36.9263 52.0632 36.467C51.5692 35.999 51.3222 35.2623 51.3222 34.257C51.3222 33.685 51.4262 33.165 51.6342 32.697C51.8422 32.229 52.1499 31.8563 52.5572 31.579C52.9732 31.293 53.4802 31.15 54.0782 31.15C54.5809 31.15 55.0099 31.254 55.3652 31.462C55.7205 31.6613 55.9892 31.9387 56.1712 32.294C56.3532 32.6493 56.4442 33.0567 56.4442 33.516L56.4182 34.348ZM54.0782 32.021C53.6275 32.021 53.2722 32.1553 53.0122 32.424C52.7609 32.6927 52.5962 33.061 52.5182 33.529H55.3522V33.477C55.3522 32.9917 55.2395 32.6277 55.0142 32.385C54.7975 32.1423 54.4855 32.021 54.0782 32.021ZM62.2825 35.986H66.4165V37H61.0865V28.576H66.3515V29.59H62.2825V32.216H65.8445L65.7145 33.204H62.2825V35.986ZM70.6417 34.062L72.6697 36.922V37H71.3827L69.9397 34.803L68.3927 37H67.2227V36.922L69.2637 34.075L67.3137 31.384V31.306H68.5877L69.9787 33.334L71.3827 31.306H72.5397V31.384L70.6417 34.062ZM75.85 37.156C75.2434 37.156 74.7364 37.026 74.329 36.766C73.9217 36.4973 73.6184 36.1377 73.419 35.687C73.2197 35.2277 73.12 34.712 73.12 34.14C73.12 33.4467 73.25 32.879 73.51 32.437C73.77 31.9863 74.121 31.6613 74.563 31.462C75.005 31.254 75.5077 31.15 76.071 31.15C76.6777 31.15 77.1847 31.2843 77.592 31.553C77.9994 31.813 78.3027 32.1683 78.502 32.619C78.7014 33.0697 78.801 33.581 78.801 34.153C78.801 34.855 78.671 35.4313 78.411 35.882C78.151 36.324 77.8 36.649 77.358 36.857C76.916 37.0563 76.4134 37.156 75.85 37.156ZM75.954 36.246C77.072 36.246 77.631 35.544 77.631 34.14C77.631 33.5073 77.4924 33.0047 77.215 32.632C76.9464 32.2507 76.539 32.06 75.993 32.06C75.3864 32.06 74.9487 32.2463 74.68 32.619C74.42 32.983 74.29 33.49 74.29 34.14C74.29 34.7813 74.4287 35.2927 74.706 35.674C74.9834 36.0553 75.3994 36.246 75.954 36.246ZM84.8049 34.348H80.8399C80.8486 34.998 81.0046 35.4703 81.3079 35.765C81.6199 36.0597 82.0186 36.207 82.5039 36.207C82.8506 36.207 83.1496 36.1637 83.4009 36.077C83.6609 35.9903 83.9469 35.856 84.2589 35.674L84.6879 36.467C83.9772 36.9263 83.2319 37.156 82.4519 37.156C81.6199 37.156 80.9526 36.9263 80.4499 36.467C79.9559 35.999 79.7089 35.2623 79.7089 34.257C79.7089 33.685 79.8129 33.165 80.0209 32.697C80.2289 32.229 80.5366 31.8563 80.9439 31.579C81.3599 31.293 81.8669 31.15 82.4649 31.15C82.9676 31.15 83.3966 31.254 83.7519 31.462C84.1072 31.6613 84.3759 31.9387 84.5579 32.294C84.7399 32.6493 84.8309 33.0567 84.8309 33.516L84.8049 34.348ZM82.4649 32.021C82.0142 32.021 81.6589 32.1553 81.3989 32.424C81.1476 32.6927 80.9829 33.061 80.9049 33.529H83.7389V33.477C83.7389 32.9917 83.6262 32.6277 83.4009 32.385C83.1842 32.1423 82.8722 32.021 82.4649 32.021ZM88.9762 31.15C89.1235 31.15 89.2578 31.1587 89.3792 31.176C89.5005 31.1933 89.6305 31.2193 89.7692 31.254L89.5612 32.411C89.2665 32.307 88.9978 32.255 88.7552 32.255C88.4778 32.255 88.2222 32.3157 87.9882 32.437C87.7542 32.5583 87.5288 32.788 87.3122 33.126V37H86.1942V31.293L87.3122 31.176V31.995C87.5288 31.7177 87.7802 31.5097 88.0662 31.371C88.3522 31.2237 88.6555 31.15 88.9762 31.15ZM94.4798 36.792C94.0291 37.0347 93.5524 37.156 93.0498 37.156C92.5124 37.156 92.0878 37.0043 91.7758 36.701C91.4638 36.389 91.3078 35.9253 91.3078 35.31V32.19H90.1638V31.306H91.3078V30.019L92.4258 29.837V31.306H94.3498L94.2328 32.19H92.4258V35.128C92.4258 35.856 92.6944 36.22 93.2318 36.22C93.3878 36.22 93.5394 36.2027 93.6868 36.168C93.8341 36.1333 93.9944 36.077 94.1678 35.999L94.4798 36.792ZM97.4477 37.156C96.9364 37.156 96.477 37.0953 96.0697 36.974C95.6624 36.844 95.2854 36.649 94.9387 36.389L95.4327 35.596C96.0654 36.0467 96.724 36.272 97.4087 36.272C97.7987 36.272 98.0977 36.207 98.3057 36.077C98.5137 35.9383 98.6177 35.739 98.6177 35.479C98.6177 35.271 98.5224 35.0933 98.3317 34.946C98.1497 34.79 97.8247 34.6513 97.3567 34.53L96.9537 34.426C96.347 34.27 95.9007 34.0663 95.6147 33.815C95.3374 33.555 95.1987 33.2127 95.1987 32.788C95.1987 32.4673 95.2897 32.1857 95.4717 31.943C95.6537 31.6917 95.905 31.4967 96.2257 31.358C96.555 31.2193 96.9234 31.15 97.3307 31.15C97.7207 31.15 98.0934 31.1977 98.4487 31.293C98.8127 31.3797 99.181 31.5313 99.5537 31.748L99.0987 32.541C98.7434 32.3503 98.4357 32.2203 98.1757 32.151C97.9157 32.073 97.6384 32.034 97.3437 32.034C97.0317 32.034 96.7847 32.099 96.6027 32.229C96.4294 32.3503 96.3427 32.515 96.3427 32.723C96.3427 32.905 96.412 33.048 96.5507 33.152C96.698 33.2473 96.9494 33.3427 97.3047 33.438L97.7077 33.542C98.2017 33.672 98.596 33.8193 98.8907 33.984C99.194 34.1487 99.415 34.348 99.5537 34.582C99.6924 34.8073 99.7617 35.0803 99.7617 35.401C99.7617 35.7477 99.6707 36.0553 99.4887 36.324C99.3154 36.584 99.0554 36.7877 98.7087 36.935C98.362 37.0823 97.9417 37.156 97.4477 37.156Z" fill="white"/>
</svg>
