<svg width="16" height="16" viewBox="0 0 16 16" fill="none" xmlns="http://www.w3.org/2000/svg">
<path fill-rule="evenodd" clip-rule="evenodd" d="M13.4362 3.128C12.0361 1.72662 10.1747 0.954237 8.19166 0.953613C4.10533 0.953613 0.779541 4.27878 0.777671 8.36698C0.777048 9.67361 1.11867 10.9491 1.76762 12.0737L0.715332 15.915L4.64519 14.8839C5.72802 15.4749 6.94737 15.786 8.18792 15.7866H8.19103C12.2767 15.7866 15.6032 12.4608 15.605 8.37259C15.6063 6.39208 14.8358 4.52876 13.4362 3.128ZM8.19166 14.5342H8.18916C7.08327 14.5342 5.99919 14.2368 5.05289 13.6752L4.82784 13.5417L2.49574 14.1533L3.1185 11.8792L2.97201 11.646C2.35485 10.6648 2.02944 9.53085 2.03006 8.36698C2.03131 4.9695 4.79605 2.20538 8.19478 2.20538C9.84053 2.20538 11.3878 2.84748 12.551 4.01197C13.7143 5.17709 14.3545 6.72497 14.3539 8.37134C14.352 11.7701 11.5879 14.5342 8.19166 14.5342ZM11.5717 9.91922C11.3865 9.82634 10.4758 9.37812 10.3056 9.3164C10.136 9.25469 10.0126 9.22352 9.88853 9.40866C9.76447 9.59381 9.41039 10.0115 9.30192 10.1355C9.19407 10.259 9.0856 10.2746 8.90045 10.1817C8.71531 10.0888 8.1181 9.89366 7.41055 9.26217C6.8601 8.77094 6.48793 8.16438 6.38008 7.97861C6.27224 7.79284 6.36886 7.69309 6.46113 7.60083C6.54466 7.51792 6.64627 7.38451 6.73916 7.27604C6.83267 7.16882 6.86321 7.09152 6.92555 6.96747C6.98727 6.84403 6.95672 6.73556 6.90997 6.64268C6.86321 6.55042 6.49292 5.6384 6.33894 5.26748C6.1887 4.90591 6.03597 4.95516 5.92189 4.94955C5.81405 4.94394 5.69061 4.94332 5.56656 4.94332C5.44313 4.94332 5.2424 4.98945 5.07283 5.17522C4.90327 5.36099 4.42451 5.80921 4.42451 6.7206C4.42451 7.63262 5.08842 8.51348 5.18068 8.63691C5.27294 8.76034 6.48668 10.6318 8.34501 11.4341C8.787 11.6248 9.13235 11.7389 9.40104 11.8243C9.84489 11.9652 10.2488 11.9452 10.568 11.8979C10.924 11.8449 11.6639 11.4496 11.8185 11.017C11.9731 10.5844 11.9731 10.2128 11.9264 10.1362C11.8803 10.0582 11.7568 10.0121 11.5717 9.91922Z" fill="#4DCCB5"/>
</svg>
